<?xml version="1.0" encoding="UTF-8"?>
<svg version="1.1" xmlns="http://www.w3.org/2000/svg" width="150" height="150">
<path d="M0 0 C1.12865982 -0.00983414 2.25731964 -0.01966827 3.42018127 -0.02980042 C4.654086 -0.02013245 5.88799072 -0.01046448 7.1592865 -0.00050354 C9.11340202 -0.00860802 9.11340202 -0.00860802 11.10699463 -0.01687622 C14.67726272 -0.03083609 18.24704921 -0.01965843 21.81729054 -0.00316501 C25.55282931 0.01068478 29.28834009 0.00422561 33.02389526 0.0007019 C39.29599268 -0.00199995 45.56789869 0.01147427 51.83995056 0.03465271 C59.09390567 0.06127401 66.34754099 0.06300586 73.60152823 0.05126435 C80.57797534 0.04049065 87.55430664 0.04666962 94.53074455 0.06081963 C97.50080028 0.06658185 100.47077133 0.06649495 103.44082832 0.06175423 C107.58543993 0.05610214 111.72957256 0.07528851 115.87413025 0.09715271 C117.72802368 0.09040024 117.72802368 0.09040024 119.61936951 0.08351135 C121.3081295 0.0983683 121.3081295 0.0983683 123.03100586 0.11352539 C124.01120728 0.11595529 124.99140871 0.11838518 126.00131321 0.12088871 C128.88323567 0.56812594 129.74278528 1.17797766 131.45201111 3.50120544 C132.45038131 6.49631604 132.58233595 8.483095 132.592453 11.61177063 C132.59816315 12.66885223 132.60387329 13.72593384 132.60975647 14.81504822 C132.61143326 16.55437622 132.61143326 16.55437622 132.61314392 18.32884216 C132.61810883 19.55019867 132.62307373 20.77155518 132.62818909 22.02992249 C132.64029819 25.38122933 132.64775586 28.73247377 132.65219975 32.08379507 C132.65513191 34.17789192 132.65923697 36.27198332 132.66370392 38.36607742 C132.6773755 44.91907344 132.68704406 51.47205697 132.69090581 58.02506626 C132.6953872 65.58777259 132.71294013 73.15029824 132.7419064 80.71294963 C132.7635245 86.5601774 132.77361014 92.40735432 132.77494693 98.25462162 C132.77599479 101.74633998 132.78189839 105.23788841 132.79976654 108.72956467 C132.81931194 112.62469564 132.81495773 116.5196008 132.80845642 120.41477966 C132.8176712 121.5702832 132.82688599 122.72578674 132.83638 123.91630554 C132.82802628 125.51038742 132.82802628 125.51038742 132.81950378 127.13667297 C132.82097034 128.05733488 132.8224369 128.97799679 132.82394791 129.92655754 C132.33001297 133.34570984 130.90911042 136.04410613 128.45201111 138.50120544 C126.72767515 138.60618684 124.99902729 138.640859 123.27151489 138.64837646 C121.58687889 138.65910942 121.58687889 138.65910942 119.86820984 138.6700592 C118.62509033 138.67274811 117.38197083 138.67543701 116.10118103 138.6782074 C114.80048172 138.68477859 113.49978241 138.69134979 112.15966797 138.69812012 C108.58106653 138.71555541 105.00247848 138.72608888 101.42384505 138.73432565 C99.189394 138.73947077 96.95494714 138.74554674 94.72049904 138.75183678 C87.7334115 138.77089648 80.74633458 138.78512557 73.75922602 138.79344875 C65.68649003 138.80322308 57.61402809 138.82954416 49.54138869 138.86994964 C43.3069603 138.90008631 37.07261057 138.9149153 30.83811074 138.91822976 C27.11215692 138.92058323 23.3864956 138.92958139 19.66061974 138.95469093 C15.50391198 138.98225028 11.347818 138.97814808 7.19102478 138.97117615 C5.95397797 138.98398621 4.71693115 138.99679626 3.44239807 139.00999451 C2.31084793 139.00305069 1.17929779 138.99610687 0.01345825 138.98895264 C-0.96971784 138.99134099 -1.95289392 138.99372934 -2.96586323 138.99619007 C-6.36121086 138.34531358 -7.52199963 137.27568065 -9.54798889 134.50120544 C-10.05135345 131.9899292 -10.05135345 131.9899292 -10.05592346 129.11180115 C-10.07284241 127.47146408 -10.07284241 127.47146408 -10.09010315 125.79798889 C-10.07795776 124.0055928 -10.07795776 124.0055928 -10.06556702 122.17698669 C-10.07257629 120.91486359 -10.07958557 119.65274048 -10.08680725 118.35237122 C-10.10503612 114.89361574 -10.09797532 111.43533773 -10.08529091 107.97657394 C-10.07516078 104.35627205 -10.08455661 100.73601091 -10.09083557 97.1157074 C-10.09811198 91.0361243 -10.0885246 84.95673559 -10.06947327 78.87718201 C-10.04770433 71.84926303 -10.05475572 64.82180822 -10.07677889 57.79390049 C-10.09493323 51.75894734 -10.09749111 45.72413389 -10.08702421 39.68916225 C-10.08078939 36.08514231 -10.0799531 32.48134051 -10.09317017 28.87733459 C-10.10687488 24.85975167 -10.08787869 20.84296841 -10.06556702 16.82542419 C-10.07366394 15.63049347 -10.08176086 14.43556274 -10.09010315 13.204422 C-10.07882385 12.11086395 -10.06754456 11.01730591 -10.05592346 9.89060974 C-10.05441536 8.94082748 -10.05290726 7.99104523 -10.05135345 7.01248169 C-8.9147794 1.34213532 -5.35390958 0.00114268 0 0 Z " fill="#FCFDFC" transform="translate(15.547988891601563,5.4987945556640625)"/>
<path d="M0 0 C1.13298173 0.75905298 2.26129283 1.52543878 3.375 2.3125 C2.01129701 5.30470268 0.42591917 7.60276529 -1.75 10.0625 C-2.28882813 10.67609375 -2.82765625 11.2896875 -3.3828125 11.921875 C-3.79273438 12.38078125 -4.20265625 12.8396875 -4.625 13.3125 C-8.625 11.3125 -8.625 11.3125 -10.4765625 10.2109375 C-15.19359507 8.23836024 -20.62764802 8.81525105 -25.625 9.3125 C-29.46657652 11.03458603 -31.00947537 12.49180049 -33.5 15.8125 C-35.52216673 22.1036854 -35.56293135 28.54807076 -33.4375 34.8125 C-31.00461679 38.16820098 -28.33085709 40.45957145 -24.625 42.3125 C-18.13839818 42.86364917 -13.34088842 42.6583859 -7.625 39.3125 C-3.625 39.3125 -3.625 39.3125 -1.484375 41.0625 C-0.78828125 41.805 -0.0921875 42.5475 0.625 43.3125 C1.33140625 44.055 2.0378125 44.7975 2.765625 45.5625 C3.29671875 46.14 3.8278125 46.7175 4.375 47.3125 C-0.70805925 53.41217111 -6.75099502 56.0390484 -14.6328125 56.76953125 C-25.20029953 57.35661386 -33.49331364 55.53000767 -41.7734375 48.484375 C-48.1253088 41.8912934 -50.80071315 34.50311024 -51.25 25.4375 C-50.92776917 15.87452053 -47.26119778 8.46437805 -40.4375 1.8125 C-28.21873152 -8.02811891 -13.1191482 -8.13017635 0 0 Z " fill="#2B5E43" transform="translate(126.625,48.6875)"/>
<path d="M0 0 C10.89268168 -1.54665504 10.89268168 -1.54665504 16 0 C19.86638741 3.7881657 21.83062934 8.09037166 24 13 C24.81327684 14.4489415 25.64166803 15.88978537 26.5 17.3125 C26.995 18.199375 27.49 19.08625 28 20 C32.48448642 13.55951419 36.31589702 6.92962227 40 0 C45.61 0 51.22 0 57 0 C51.97438657 9.63242575 46.20911098 18.72278981 40.34692383 27.86279297 C39.90243896 28.56807129 39.4579541 29.27334961 39 30 C38.45972168 30.78995361 37.91944336 31.57990723 37.36279297 32.39379883 C35.76914247 35.44149124 35.57608576 37.53265526 35.48828125 40.95703125 C35.45283203 42.06884766 35.41738281 43.18066406 35.38085938 44.32617188 C35.35830078 45.47666016 35.33574219 46.62714844 35.3125 47.8125 C35.27833984 48.98232422 35.24417969 50.15214844 35.20898438 51.35742188 C35.12668363 54.23794788 35.06166067 57.11895828 35 60 C30.38 60 25.76 60 21 60 C21.07863281 58.45054688 21.15726563 56.90109375 21.23828125 55.3046875 C21.62572695 37.73583693 16.95002282 27.18465971 7 13 C5.53485149 10.76618576 4.11139447 8.51061596 2.6875 6.25 C1.88892578 5.05117188 1.88892578 5.05117188 1.07421875 3.828125 C0 2 0 2 0 0 Z " fill="#2B5E42" transform="translate(19,44)"/>
<path d="M0 0 C1.12865982 -0.00983414 2.25731964 -0.01966827 3.42018127 -0.02980042 C4.654086 -0.02013245 5.88799072 -0.01046448 7.1592865 -0.00050354 C9.11340202 -0.00860802 9.11340202 -0.00860802 11.10699463 -0.01687622 C14.67726272 -0.03083609 18.24704921 -0.01965843 21.81729054 -0.00316501 C25.55282931 0.01068478 29.28834009 0.00422561 33.02389526 0.0007019 C39.29599268 -0.00199995 45.56789869 0.01147427 51.83995056 0.03465271 C59.09390567 0.06127401 66.34754099 0.06300586 73.60152823 0.05126435 C80.57797534 0.04049065 87.55430664 0.04666962 94.53074455 0.06081963 C97.50080028 0.06658185 100.47077133 0.06649495 103.44082832 0.06175423 C107.58543993 0.05610214 111.72957256 0.07528851 115.87413025 0.09715271 C117.72802368 0.09040024 117.72802368 0.09040024 119.61936951 0.08351135 C121.3081295 0.0983683 121.3081295 0.0983683 123.03100586 0.11352539 C124.01120728 0.11595529 124.99140871 0.11838518 126.00131321 0.12088871 C128.88323567 0.56812594 129.74278528 1.17797766 131.45201111 3.50120544 C132.45038131 6.49631604 132.58233595 8.483095 132.592453 11.61177063 C132.59816315 12.66885223 132.60387329 13.72593384 132.60975647 14.81504822 C132.61143326 16.55437622 132.61143326 16.55437622 132.61314392 18.32884216 C132.61810883 19.55019867 132.62307373 20.77155518 132.62818909 22.02992249 C132.64029819 25.38122933 132.64775586 28.73247377 132.65219975 32.08379507 C132.65513191 34.17789192 132.65923697 36.27198332 132.66370392 38.36607742 C132.6773755 44.91907344 132.68704406 51.47205697 132.69090581 58.02506626 C132.6953872 65.58777259 132.71294013 73.15029824 132.7419064 80.71294963 C132.7635245 86.5601774 132.77361014 92.40735432 132.77494693 98.25462162 C132.77599479 101.74633998 132.78189839 105.23788841 132.79976654 108.72956467 C132.81931194 112.62469564 132.81495773 116.5196008 132.80845642 120.41477966 C132.8176712 121.5702832 132.82688599 122.72578674 132.83638 123.91630554 C132.82802628 125.51038742 132.82802628 125.51038742 132.81950378 127.13667297 C132.82097034 128.05733488 132.8224369 128.97799679 132.82394791 129.92655754 C132.33001297 133.34570984 130.90911042 136.04410613 128.45201111 138.50120544 C126.72767515 138.60618684 124.99902729 138.640859 123.27151489 138.64837646 C121.58687889 138.65910942 121.58687889 138.65910942 119.86820984 138.6700592 C118.62509033 138.67274811 117.38197083 138.67543701 116.10118103 138.6782074 C114.80048172 138.68477859 113.49978241 138.69134979 112.15966797 138.69812012 C108.58106653 138.71555541 105.00247848 138.72608888 101.42384505 138.73432565 C99.189394 138.73947077 96.95494714 138.74554674 94.72049904 138.75183678 C87.7334115 138.77089648 80.74633458 138.78512557 73.75922602 138.79344875 C65.68649003 138.80322308 57.61402809 138.82954416 49.54138869 138.86994964 C43.3069603 138.90008631 37.07261057 138.9149153 30.83811074 138.91822976 C27.11215692 138.92058323 23.3864956 138.92958139 19.66061974 138.95469093 C15.50391198 138.98225028 11.347818 138.97814808 7.19102478 138.97117615 C5.95397797 138.98398621 4.71693115 138.99679626 3.44239807 139.00999451 C2.31084793 139.00305069 1.17929779 138.99610687 0.01345825 138.98895264 C-0.96971784 138.99134099 -1.95289392 138.99372934 -2.96586323 138.99619007 C-6.36121086 138.34531358 -7.52199963 137.27568065 -9.54798889 134.50120544 C-10.05135345 131.9899292 -10.05135345 131.9899292 -10.05592346 129.11180115 C-10.07284241 127.47146408 -10.07284241 127.47146408 -10.09010315 125.79798889 C-10.07795776 124.0055928 -10.07795776 124.0055928 -10.06556702 122.17698669 C-10.07257629 120.91486359 -10.07958557 119.65274048 -10.08680725 118.35237122 C-10.10503612 114.89361574 -10.09797532 111.43533773 -10.08529091 107.97657394 C-10.07516078 104.35627205 -10.08455661 100.73601091 -10.09083557 97.1157074 C-10.09811198 91.0361243 -10.0885246 84.95673559 -10.06947327 78.87718201 C-10.04770433 71.84926303 -10.05475572 64.82180822 -10.07677889 57.79390049 C-10.09493323 51.75894734 -10.09749111 45.72413389 -10.08702421 39.68916225 C-10.08078939 36.08514231 -10.0799531 32.48134051 -10.09317017 28.87733459 C-10.10687488 24.85975167 -10.08787869 20.84296841 -10.06556702 16.82542419 C-10.07366394 15.63049347 -10.08176086 14.43556274 -10.09010315 13.204422 C-10.07882385 12.11086395 -10.06754456 11.01730591 -10.05592346 9.89060974 C-10.05441536 8.94082748 -10.05290726 7.99104523 -10.05135345 7.01248169 C-8.9147794 1.34213532 -5.35390958 0.00114268 0 0 Z M-8.54798889 5.50120544 C-9.14460662 8.02228268 -9.14460662 8.02228268 -9.05592346 10.81468201 C-9.06720276 11.89141174 -9.07848206 12.96814148 -9.09010315 14.07749939 C-9.08200623 15.25372864 -9.0739093 16.42995789 -9.06556702 17.64183044 C-9.07257629 18.88444641 -9.07958557 20.12706238 -9.08680725 21.40733337 C-9.10139762 24.8125573 -9.09797637 28.21680926 -9.08529091 31.62197876 C-9.07516005 35.18622642 -9.08455681 38.7504327 -9.09083557 42.31468201 C-9.09811177 48.30010938 -9.08852516 54.2853393 -9.06947327 60.27073669 C-9.04770435 67.18959502 -9.05475576 74.10798187 -9.07677889 81.02682877 C-9.09493384 86.96836506 -9.09749082 92.90975947 -9.08702421 98.85131454 C-9.08078971 102.39944435 -9.07995218 105.94735259 -9.09317017 109.49546814 C-9.10687567 113.45069185 -9.08787724 117.40538793 -9.06556702 121.36058044 C-9.07366394 122.53680969 -9.08176086 123.71303894 -9.09010315 124.9249115 C-9.07882385 126.00164124 -9.06754456 127.07837097 -9.05592346 128.18772888 C-9.05441536 129.12276245 -9.05290726 130.05779602 -9.05135345 131.02116394 C-8.37778366 134.33979453 -7.25672965 135.50597611 -4.54798889 137.50120544 C-1.97642036 138.09833511 -1.97642036 138.09833511 0.87937927 138.00914001 C1.98135147 138.02041931 3.08332367 138.03169861 4.21868896 138.0433197 C6.02511116 138.03117432 6.02511116 138.03117432 7.86802673 138.01878357 C9.13990341 138.02579285 10.41178009 138.03280212 11.72219849 138.0400238 C15.2078114 138.05825335 18.69295054 138.05119158 22.1785717 138.03850746 C25.82690072 138.02837769 29.47518928 138.03777306 33.1235199 138.04405212 C39.25018087 138.05132863 45.37664895 138.04174088 51.50328064 138.02268982 C58.58572997 138.00092087 65.66771871 138.00797225 72.75015688 138.02999544 C78.83181846 138.04814948 84.91334142 138.05070781 90.99502134 138.04024076 C94.62698637 138.03400578 98.25873493 138.03317011 101.89068604 138.04638672 C105.93939984 138.06009088 109.98732009 138.04109571 114.03599548 138.01878357 C115.84241768 138.03092896 115.84241768 138.03092896 117.68533325 138.0433197 C118.78730545 138.03204041 119.88927765 138.02076111 121.02464294 138.00914001 C121.98179955 138.00763191 122.93895615 138.00612381 123.92511749 138.00457001 C127.27402709 137.33745747 128.44156008 136.23363499 130.45201111 133.50120544 C131.04862884 130.98012821 131.04862884 130.98012821 130.95994568 128.18772888 C130.97122498 127.11099915 130.98250427 126.03426941 130.99412537 124.9249115 C130.98602844 123.74868225 130.97793152 122.572453 130.96958923 121.36058044 C130.97659851 120.11796448 130.98360779 118.87534851 130.99082947 117.59507751 C131.00541984 114.18985358 131.00199859 110.78560162 130.98931313 107.38043213 C130.97918227 103.81618447 130.98857903 100.25197818 130.99485779 96.68772888 C131.00213399 90.70230151 130.99254738 84.71707159 130.97349548 78.73167419 C130.95172657 71.81281587 130.95877798 64.89442902 130.98080111 57.97558212 C130.99895606 52.03404582 131.00151304 46.09265142 130.99104643 40.15109634 C130.98481193 36.60296653 130.9839744 33.0550583 130.99719238 29.50694275 C131.01089789 25.55171904 130.99189946 21.59702296 130.96958923 17.64183044 C130.97768616 16.4656012 130.98578308 15.28937195 130.99412537 14.07749939 C130.98284607 13.00076965 130.97156677 11.92403992 130.95994568 10.81468201 C130.95843758 9.87964844 130.95692947 8.94461487 130.95537567 7.98124695 C130.28180588 4.66261636 129.16075187 3.49643478 126.45201111 1.50120544 C123.88044258 0.90407578 123.88044258 0.90407578 121.02464294 0.99327087 C119.92267075 0.98199158 118.82069855 0.97071228 117.68533325 0.95909119 C115.87891106 0.97123657 115.87891106 0.97123657 114.03599548 0.98362732 C112.7641188 0.97661804 111.49224213 0.96960876 110.18182373 0.96238708 C106.69621082 0.94415754 103.21107167 0.95121931 99.72545052 0.96390343 C96.0771215 0.9740332 92.42883294 0.96463783 88.78050232 0.95835876 C82.65384134 0.95108225 76.52737326 0.96067001 70.40074158 0.97972107 C63.31829225 1.00149002 56.23630351 0.99443864 49.15386534 0.97241545 C43.07220375 0.9542614 36.9906808 0.95170308 30.90900087 0.96217012 C27.27703585 0.96840511 23.64528729 0.96924078 20.01333618 0.95602417 C15.96462237 0.94232001 11.91670213 0.96131518 7.86802673 0.98362732 C6.66374527 0.9755304 5.45946381 0.96743347 4.21868896 0.95909119 C3.11671677 0.97037048 2.01474457 0.98164978 0.87937927 0.99327087 C-0.07777733 0.99477898 -1.03493393 0.99628708 -2.02109528 0.99784088 C-5.37000488 1.66495342 -6.53753786 2.7687759 -8.54798889 5.50120544 Z " fill="#4F735F" transform="translate(15.547988891601563,5.4987945556640625)"/>
</svg>
