<svg xmlns="http://www.w3.org/2000/svg" xmlns:xlink="http://www.w3.org/1999/xlink" width="50" zoomAndPan="magnify" viewBox="0 0 37.5 37.499999" height="50" preserveAspectRatio="xMidYMid meet" version="1.0"><defs><g/><clipPath id="24418f6541"><path d="M 4.167969 5.054688 L 33 5.054688 L 33 33.179688 L 4.167969 33.179688 Z M 4.167969 5.054688 " clip-rule="nonzero"/></clipPath><clipPath id="76fa8f1872"><path d="M 4.90625 5.054688 L 32.09375 5.054688 C 32.289062 5.054688 32.476562 5.132812 32.617188 5.273438 C 32.753906 5.410156 32.832031 5.601562 32.832031 5.796875 L 32.832031 32.558594 C 32.832031 32.753906 32.753906 32.941406 32.617188 33.078125 C 32.476562 33.21875 32.289062 33.296875 32.09375 33.296875 L 4.90625 33.296875 C 4.710938 33.296875 4.523438 33.21875 4.386719 33.078125 C 4.246094 32.941406 4.167969 32.753906 4.167969 32.558594 L 4.167969 5.796875 C 4.167969 5.601562 4.246094 5.410156 4.386719 5.273438 C 4.523438 5.132812 4.710938 5.054688 4.90625 5.054688 Z M 4.90625 5.054688 " clip-rule="nonzero"/></clipPath></defs><g clip-path="url(#24418f6541)"><g clip-path="url(#76fa8f1872)"><path stroke-linecap="butt" transform="matrix(0.740132, 0, 0, 0.740132, 4.168063, 5.056131)" fill="none" stroke-linejoin="miter" d="M 0.997373 -0.00195029 L 37.730708 -0.00195029 C 37.994597 -0.00195029 38.247931 0.103605 38.437931 0.293605 C 38.622653 0.478328 38.728208 0.736939 38.728208 1.000828 L 38.728208 37.158886 C 38.728208 37.422774 38.622653 37.676108 38.437931 37.86083 C 38.247931 38.05083 37.994597 38.156386 37.730708 38.156386 L 0.997373 38.156386 C 0.733484 38.156386 0.48015 38.05083 0.295428 37.86083 C 0.105428 37.676108 -0.000127562 37.422774 -0.000127562 37.158886 L -0.000127562 1.000828 C -0.000127562 0.736939 0.105428 0.478328 0.295428 0.293605 C 0.48015 0.103605 0.733484 -0.00195029 0.997373 -0.00195029 Z M 0.997373 -0.00195029 " stroke="#1d443b" stroke-width="0.8" stroke-opacity="1" stroke-miterlimit="4"/></g></g><g fill="#1d443b" fill-opacity="1"><g transform="translate(5.865572, 25.009075)"><g><path d="M 5.203125 -4.71875 L 0.171875 -13.1875 L 3.984375 -13.1875 L 7.828125 -6.328125 L 5.15625 -6.328125 L 9 -13.1875 L 12.734375 -13.1875 L 7.65625 -4.71875 Z M 4.8125 0 L 4.8125 -6.078125 L 8.140625 -6.078125 L 8.140625 0 Z M 4.8125 0 "/></g></g></g><g fill="#1d443b" fill-opacity="1"><g transform="translate(18.27446, 25.009075)"><g><path d="M 7.5625 0.203125 C 6.5625 0.203125 5.632812 0.0351562 4.78125 -0.296875 C 3.925781 -0.640625 3.175781 -1.117188 2.53125 -1.734375 C 1.894531 -2.347656 1.398438 -3.070312 1.046875 -3.90625 C 0.691406 -4.738281 0.515625 -5.632812 0.515625 -6.59375 C 0.515625 -7.570312 0.691406 -8.472656 1.046875 -9.296875 C 1.398438 -10.128906 1.894531 -10.847656 2.53125 -11.453125 C 3.175781 -12.054688 3.921875 -12.53125 4.765625 -12.875 C 5.617188 -13.226562 6.539062 -13.40625 7.53125 -13.40625 C 8.570312 -13.40625 9.503906 -13.238281 10.328125 -12.90625 C 11.160156 -12.582031 11.894531 -12.128906 12.53125 -11.546875 L 10.296875 -9.3125 C 9.992188 -9.664062 9.609375 -9.941406 9.140625 -10.140625 C 8.679688 -10.335938 8.144531 -10.4375 7.53125 -10.4375 C 7 -10.4375 6.507812 -10.347656 6.0625 -10.171875 C 5.625 -9.992188 5.242188 -9.734375 4.921875 -9.390625 C 4.597656 -9.054688 4.347656 -8.648438 4.171875 -8.171875 C 3.992188 -7.703125 3.90625 -7.175781 3.90625 -6.59375 C 3.90625 -6.019531 3.992188 -5.492188 4.171875 -5.015625 C 4.347656 -4.546875 4.597656 -4.140625 4.921875 -3.796875 C 5.242188 -3.460938 5.625 -3.203125 6.0625 -3.015625 C 6.507812 -2.835938 7 -2.75 7.53125 -2.75 C 8.144531 -2.75 8.6875 -2.84375 9.15625 -3.03125 C 9.632812 -3.226562 10.039062 -3.507812 10.375 -3.875 L 12.609375 -1.640625 C 11.960938 -1.054688 11.234375 -0.601562 10.421875 -0.28125 C 9.609375 0.0390625 8.65625 0.203125 7.5625 0.203125 Z M 7.5625 0.203125 "/></g></g></g></svg>