<svg xmlns="http://www.w3.org/2000/svg" xmlns:xlink="http://www.w3.org/1999/xlink" width="797" zoomAndPan="magnify" viewBox="0 0 597.75 227.999995" height="304" preserveAspectRatio="xMidYMid meet" version="1.0"><defs><g/><clipPath id="d5cb740c59"><path d="M 454.378906 22.324219 L 490 22.324219 L 490 83 L 454.378906 83 Z M 454.378906 22.324219 " clip-rule="nonzero"/></clipPath><clipPath id="a4d2e0cc5e"><path d="M 55.65625 15.28125 L 210.839844 15.28125 L 210.839844 168.21875 L 55.65625 168.21875 Z M 55.65625 15.28125 " clip-rule="nonzero"/></clipPath><clipPath id="5fa0ebaa75"><path d="M 60.519531 15.28125 L 206.101562 15.28125 C 208.785156 15.28125 210.960938 17.460938 210.960938 20.144531 L 210.960938 163.429688 C 210.960938 166.113281 208.785156 168.289062 206.101562 168.289062 L 60.519531 168.289062 C 57.835938 168.289062 55.65625 166.113281 55.65625 163.429688 L 55.65625 20.144531 C 55.65625 17.460938 57.835938 15.28125 60.519531 15.28125 Z M 60.519531 15.28125 " clip-rule="nonzero"/></clipPath></defs><g fill="#ffffff" fill-opacity="1"><g transform="translate(233.061563, 91.461982)"><g><path d="M 20.0625 -18.515625 L 0.921875 -49.703125 L 13.734375 -49.703125 L 28.4375 -24.5 L 20.203125 -24.5 L 34.921875 -49.703125 L 47.453125 -49.703125 L 28.15625 -18.515625 Z M 18.734375 0 L 18.734375 -23.59375 L 29.78125 -23.59375 L 29.78125 0 Z M 18.734375 0 "/></g></g></g><g fill="#ffffff" fill-opacity="1"><g transform="translate(281.400619, 91.461982)"><g><path d="M 20.28125 0.78125 C 16.757812 0.78125 13.578125 -0.00390625 10.734375 -1.578125 C 7.898438 -3.148438 5.660156 -5.296875 4.015625 -8.015625 C 2.367188 -10.742188 1.546875 -13.796875 1.546875 -17.171875 C 1.546875 -20.554688 2.367188 -23.585938 4.015625 -26.265625 C 5.660156 -28.941406 7.890625 -31.0625 10.703125 -32.625 C 13.515625 -34.195312 16.707031 -34.984375 20.28125 -34.984375 C 23.84375 -34.984375 27.03125 -34.207031 29.84375 -32.65625 C 32.664062 -31.113281 34.894531 -28.992188 36.53125 -26.296875 C 38.175781 -23.597656 39 -20.554688 39 -17.171875 C 39 -13.796875 38.175781 -10.742188 36.53125 -8.015625 C 34.894531 -5.296875 32.664062 -3.148438 29.84375 -1.578125 C 27.03125 -0.00390625 23.84375 0.78125 20.28125 0.78125 Z M 20.28125 -9.015625 C 21.820312 -9.015625 23.179688 -9.351562 24.359375 -10.03125 C 25.535156 -10.707031 26.4375 -11.664062 27.0625 -12.90625 C 27.695312 -14.15625 28.015625 -15.578125 28.015625 -17.171875 C 28.015625 -18.773438 27.6875 -20.171875 27.03125 -21.359375 C 26.375 -22.554688 25.46875 -23.492188 24.3125 -24.171875 C 23.164062 -24.859375 21.820312 -25.203125 20.28125 -25.203125 C 18.78125 -25.203125 17.441406 -24.859375 16.265625 -24.171875 C 15.085938 -23.492188 14.171875 -22.546875 13.515625 -21.328125 C 12.859375 -20.109375 12.53125 -18.703125 12.53125 -17.109375 C 12.53125 -15.554688 12.859375 -14.15625 13.515625 -12.90625 C 14.171875 -11.664062 15.085938 -10.707031 16.265625 -10.03125 C 17.441406 -9.351562 18.78125 -9.015625 20.28125 -9.015625 Z M 20.28125 -9.015625 "/></g></g></g><g fill="#ffffff" fill-opacity="1"><g transform="translate(321.929454, 91.461982)"><g><path d="M 19.015625 0.78125 C 15.867188 0.78125 13.085938 0.132812 10.671875 -1.15625 C 8.253906 -2.445312 6.363281 -4.226562 5 -6.5 C 3.632812 -8.78125 2.953125 -11.398438 2.953125 -14.359375 L 2.953125 -34.21875 L 13.734375 -34.21875 L 13.734375 -14.5 C 13.734375 -13.332031 13.929688 -12.320312 14.328125 -11.46875 C 14.722656 -10.625 15.316406 -9.96875 16.109375 -9.5 C 16.910156 -9.03125 17.878906 -8.796875 19.015625 -8.796875 C 20.609375 -8.796875 21.875 -9.300781 22.8125 -10.3125 C 23.75 -11.320312 24.21875 -12.71875 24.21875 -14.5 L 24.21875 -34.21875 L 34.984375 -34.21875 L 34.984375 -14.4375 C 34.984375 -11.425781 34.300781 -8.78125 32.9375 -6.5 C 31.582031 -4.226562 29.707031 -2.445312 27.3125 -1.15625 C 24.925781 0.132812 22.160156 0.78125 19.015625 0.78125 Z M 19.015625 0.78125 "/></g></g></g><g fill="#ffffff" fill-opacity="1"><g transform="translate(359.854862, 91.461982)"><g><path d="M 26.40625 0 L 26.40625 -19.5 C 26.40625 -21.28125 25.851562 -22.722656 24.75 -23.828125 C 23.644531 -24.929688 22.25 -25.484375 20.5625 -25.484375 C 19.382812 -25.484375 18.347656 -25.238281 17.453125 -24.75 C 16.566406 -24.257812 15.863281 -23.554688 15.34375 -22.640625 C 14.832031 -21.722656 14.578125 -20.675781 14.578125 -19.5 L 10.421875 -21.546875 C 10.421875 -24.222656 11.003906 -26.566406 12.171875 -28.578125 C 13.347656 -30.597656 14.976562 -32.160156 17.0625 -33.265625 C 19.15625 -34.367188 21.519531 -34.921875 24.15625 -34.921875 C 26.6875 -34.921875 28.925781 -34.320312 30.875 -33.125 C 32.820312 -31.925781 34.359375 -30.34375 35.484375 -28.375 C 36.609375 -26.40625 37.171875 -24.242188 37.171875 -21.890625 L 37.171875 0 Z M 3.796875 0 L 3.796875 -34.21875 L 14.578125 -34.21875 L 14.578125 0 Z M 3.796875 0 "/></g></g></g><g fill="#ffffff" fill-opacity="1"><g transform="translate(400.102273, 91.461982)"><g><path d="M 18.3125 15.34375 C 14.550781 15.34375 11.25 14.695312 8.40625 13.40625 C 5.570312 12.113281 3.332031 10.296875 1.6875 7.953125 L 8.3125 1.34375 C 9.53125 2.789062 10.898438 3.890625 12.421875 4.640625 C 13.953125 5.390625 15.796875 5.765625 17.953125 5.765625 C 20.628906 5.765625 22.726562 5.109375 24.25 3.796875 C 25.78125 2.484375 26.546875 0.628906 26.546875 -1.765625 L 26.546875 -10.484375 L 28.375 -17.953125 L 26.75 -25.421875 L 26.75 -34.21875 L 37.3125 -34.21875 L 37.3125 -2.046875 C 37.3125 1.472656 36.488281 4.523438 34.84375 7.109375 C 33.207031 9.691406 30.957031 11.707031 28.09375 13.15625 C 25.226562 14.613281 21.96875 15.34375 18.3125 15.34375 Z M 17.8125 -1.0625 C 14.664062 -1.0625 11.867188 -1.8125 9.421875 -3.3125 C 6.984375 -4.8125 5.0625 -6.851562 3.65625 -9.4375 C 2.25 -12.019531 1.546875 -14.882812 1.546875 -18.03125 C 1.546875 -21.21875 2.25 -24.085938 3.65625 -26.640625 C 5.0625 -29.203125 6.984375 -31.222656 9.421875 -32.703125 C 11.867188 -34.179688 14.664062 -34.921875 17.8125 -34.921875 C 20.15625 -34.921875 22.253906 -34.484375 24.109375 -33.609375 C 25.960938 -32.742188 27.460938 -31.523438 28.609375 -29.953125 C 29.765625 -28.378906 30.414062 -26.5625 30.5625 -24.5 L 30.5625 -11.46875 C 30.414062 -9.457031 29.765625 -7.664062 28.609375 -6.09375 C 27.460938 -4.519531 25.953125 -3.285156 24.078125 -2.390625 C 22.203125 -1.503906 20.113281 -1.0625 17.8125 -1.0625 Z M 19.859375 -10.625 C 21.359375 -10.625 22.660156 -10.953125 23.765625 -11.609375 C 24.867188 -12.273438 25.710938 -13.15625 26.296875 -14.25 C 26.878906 -15.351562 27.171875 -16.613281 27.171875 -18.03125 C 27.171875 -19.4375 26.878906 -20.703125 26.296875 -21.828125 C 25.710938 -22.953125 24.867188 -23.84375 23.765625 -24.5 C 22.660156 -25.15625 21.359375 -25.484375 19.859375 -25.484375 C 18.398438 -25.484375 17.109375 -25.15625 15.984375 -24.5 C 14.859375 -23.84375 13.988281 -22.953125 13.375 -21.828125 C 12.769531 -20.703125 12.46875 -19.4375 12.46875 -18.03125 C 12.46875 -16.707031 12.769531 -15.472656 13.375 -14.328125 C 13.988281 -13.179688 14.84375 -12.273438 15.9375 -11.609375 C 17.039062 -10.953125 18.347656 -10.625 19.859375 -10.625 Z M 19.859375 -10.625 "/></g></g></g><g fill="#ffffff" fill-opacity="1"><g transform="translate(441.241008, 91.461982)"><g/></g></g><g fill="#ffffff" fill-opacity="1"><g transform="translate(233.061563, 161.279368)"><g><path d="M 28.375 0.78125 C 24.664062 0.78125 21.226562 0.132812 18.0625 -1.15625 C 14.894531 -2.445312 12.125 -4.265625 9.75 -6.609375 C 7.382812 -8.960938 5.539062 -11.695312 4.21875 -14.8125 C 2.90625 -17.9375 2.25 -21.304688 2.25 -24.921875 C 2.25 -28.535156 2.90625 -31.898438 4.21875 -35.015625 C 5.539062 -38.140625 7.375 -40.851562 9.71875 -43.15625 C 12.0625 -45.457031 14.816406 -47.253906 17.984375 -48.546875 C 21.148438 -49.835938 24.585938 -50.484375 28.296875 -50.484375 C 32.242188 -50.484375 35.753906 -49.847656 38.828125 -48.578125 C 41.898438 -47.304688 44.585938 -45.570312 46.890625 -43.375 L 39.5 -35.90625 C 38.1875 -37.3125 36.601562 -38.410156 34.75 -39.203125 C 32.894531 -40.003906 30.742188 -40.40625 28.296875 -40.40625 C 26.140625 -40.40625 24.15625 -40.039062 22.34375 -39.3125 C 20.539062 -38.59375 18.992188 -37.550781 17.703125 -36.1875 C 16.410156 -34.820312 15.398438 -33.175781 14.671875 -31.25 C 13.953125 -29.332031 13.59375 -27.222656 13.59375 -24.921875 C 13.59375 -22.578125 13.953125 -20.441406 14.671875 -18.515625 C 15.398438 -16.585938 16.410156 -14.941406 17.703125 -13.578125 C 18.992188 -12.222656 20.539062 -11.171875 22.34375 -10.421875 C 24.15625 -9.671875 26.140625 -9.296875 28.296875 -9.296875 C 30.835938 -9.296875 33.046875 -9.691406 34.921875 -10.484375 C 36.796875 -11.285156 38.414062 -12.390625 39.78125 -13.796875 L 47.25 -6.34375 C 44.851562 -4.132812 42.113281 -2.394531 39.03125 -1.125 C 35.957031 0.144531 32.40625 0.78125 28.375 0.78125 Z M 28.375 0.78125 "/></g></g></g><g fill="#ffffff" fill-opacity="1"><g transform="translate(281.541361, 161.279368)"><g><path d="M 26.40625 0 L 26.40625 -19.5 C 26.40625 -21.28125 25.851562 -22.722656 24.75 -23.828125 C 23.644531 -24.929688 22.25 -25.484375 20.5625 -25.484375 C 19.382812 -25.484375 18.347656 -25.238281 17.453125 -24.75 C 16.566406 -24.257812 15.863281 -23.554688 15.34375 -22.640625 C 14.832031 -21.722656 14.578125 -20.675781 14.578125 -19.5 L 10.421875 -21.546875 C 10.421875 -24.222656 10.984375 -26.566406 12.109375 -28.578125 C 13.234375 -30.597656 14.804688 -32.160156 16.828125 -33.265625 C 18.847656 -34.367188 21.171875 -34.921875 23.796875 -34.921875 C 26.472656 -34.921875 28.816406 -34.367188 30.828125 -33.265625 C 32.847656 -32.160156 34.410156 -30.632812 35.515625 -28.6875 C 36.617188 -26.738281 37.171875 -24.472656 37.171875 -21.890625 L 37.171875 0 Z M 3.796875 0 L 3.796875 -51.109375 L 14.578125 -51.109375 L 14.578125 0 Z M 3.796875 0 "/></g></g></g><g fill="#ffffff" fill-opacity="1"><g transform="translate(321.788771, 161.279368)"><g><path d="M 18.09375 0.703125 C 14.945312 0.703125 12.140625 -0.0664062 9.671875 -1.609375 C 7.210938 -3.160156 5.265625 -5.273438 3.828125 -7.953125 C 2.398438 -10.628906 1.6875 -13.679688 1.6875 -17.109375 C 1.6875 -20.535156 2.398438 -23.585938 3.828125 -26.265625 C 5.265625 -28.941406 7.210938 -31.050781 9.671875 -32.59375 C 12.140625 -34.144531 14.945312 -34.921875 18.09375 -34.921875 C 20.394531 -34.921875 22.472656 -34.472656 24.328125 -33.578125 C 26.179688 -32.691406 27.691406 -31.460938 28.859375 -29.890625 C 30.035156 -28.316406 30.695312 -26.519531 30.84375 -24.5 L 30.84375 -9.71875 C 30.695312 -7.695312 30.046875 -5.898438 28.890625 -4.328125 C 27.742188 -2.753906 26.234375 -1.519531 24.359375 -0.625 C 22.484375 0.257812 20.394531 0.703125 18.09375 0.703125 Z M 20.28125 -9.015625 C 22.582031 -9.015625 24.4375 -9.773438 25.84375 -11.296875 C 27.25 -12.828125 27.953125 -14.765625 27.953125 -17.109375 C 27.953125 -18.703125 27.632812 -20.109375 27 -21.328125 C 26.363281 -22.546875 25.46875 -23.492188 24.3125 -24.171875 C 23.164062 -24.859375 21.84375 -25.203125 20.34375 -25.203125 C 18.84375 -25.203125 17.515625 -24.859375 16.359375 -24.171875 C 15.210938 -23.492188 14.300781 -22.546875 13.625 -21.328125 C 12.945312 -20.109375 12.609375 -18.703125 12.609375 -17.109375 C 12.609375 -15.554688 12.9375 -14.171875 13.59375 -12.953125 C 14.25 -11.734375 15.160156 -10.769531 16.328125 -10.0625 C 17.503906 -9.363281 18.820312 -9.015625 20.28125 -9.015625 Z M 27.53125 0 L 27.53125 -9.21875 L 29.140625 -17.53125 L 27.53125 -25.84375 L 27.53125 -34.21875 L 38.09375 -34.21875 L 38.09375 0 Z M 27.53125 0 "/></g></g></g><g fill="#ffffff" fill-opacity="1"><g transform="translate(363.654475, 161.279368)"><g><path d="M 26.40625 0 L 26.40625 -19.5 C 26.40625 -21.28125 25.851562 -22.722656 24.75 -23.828125 C 23.644531 -24.929688 22.25 -25.484375 20.5625 -25.484375 C 19.382812 -25.484375 18.347656 -25.238281 17.453125 -24.75 C 16.566406 -24.257812 15.863281 -23.554688 15.34375 -22.640625 C 14.832031 -21.722656 14.578125 -20.675781 14.578125 -19.5 L 10.421875 -21.546875 C 10.421875 -24.222656 11.003906 -26.566406 12.171875 -28.578125 C 13.347656 -30.597656 14.976562 -32.160156 17.0625 -33.265625 C 19.15625 -34.367188 21.519531 -34.921875 24.15625 -34.921875 C 26.6875 -34.921875 28.925781 -34.320312 30.875 -33.125 C 32.820312 -31.925781 34.359375 -30.34375 35.484375 -28.375 C 36.609375 -26.40625 37.171875 -24.242188 37.171875 -21.890625 L 37.171875 0 Z M 3.796875 0 L 3.796875 -34.21875 L 14.578125 -34.21875 L 14.578125 0 Z M 3.796875 0 "/></g></g></g><g fill="#ffffff" fill-opacity="1"><g transform="translate(403.901886, 161.279368)"><g><path d="M 18.09375 0.703125 C 14.945312 0.703125 12.140625 -0.0664062 9.671875 -1.609375 C 7.210938 -3.160156 5.265625 -5.273438 3.828125 -7.953125 C 2.398438 -10.628906 1.6875 -13.679688 1.6875 -17.109375 C 1.6875 -20.535156 2.398438 -23.585938 3.828125 -26.265625 C 5.265625 -28.941406 7.210938 -31.050781 9.671875 -32.59375 C 12.140625 -34.144531 14.945312 -34.921875 18.09375 -34.921875 C 20.394531 -34.921875 22.472656 -34.472656 24.328125 -33.578125 C 26.179688 -32.691406 27.691406 -31.460938 28.859375 -29.890625 C 30.035156 -28.316406 30.695312 -26.519531 30.84375 -24.5 L 30.84375 -9.71875 C 30.695312 -7.695312 30.046875 -5.898438 28.890625 -4.328125 C 27.742188 -2.753906 26.234375 -1.519531 24.359375 -0.625 C 22.484375 0.257812 20.394531 0.703125 18.09375 0.703125 Z M 20.28125 -9.015625 C 22.582031 -9.015625 24.4375 -9.773438 25.84375 -11.296875 C 27.25 -12.828125 27.953125 -14.765625 27.953125 -17.109375 C 27.953125 -18.703125 27.632812 -20.109375 27 -21.328125 C 26.363281 -22.546875 25.46875 -23.492188 24.3125 -24.171875 C 23.164062 -24.859375 21.84375 -25.203125 20.34375 -25.203125 C 18.84375 -25.203125 17.515625 -24.859375 16.359375 -24.171875 C 15.210938 -23.492188 14.300781 -22.546875 13.625 -21.328125 C 12.945312 -20.109375 12.609375 -18.703125 12.609375 -17.109375 C 12.609375 -15.554688 12.9375 -14.171875 13.59375 -12.953125 C 14.25 -11.734375 15.160156 -10.769531 16.328125 -10.0625 C 17.503906 -9.363281 18.820312 -9.015625 20.28125 -9.015625 Z M 27.53125 0 L 27.53125 -9.21875 L 29.140625 -17.53125 L 27.53125 -25.84375 L 27.53125 -34.21875 L 38.09375 -34.21875 L 38.09375 0 Z M 27.53125 0 "/></g></g></g><g fill="#ffffff" fill-opacity="1"><g transform="translate(445.76759, 161.279368)"><g><path d="M 25.703125 0 L 13.734375 -17.75 L 25.625 -34.21875 L 37.671875 -34.21875 L 23.296875 -15.703125 L 23.65625 -20.140625 L 38.375 0 Z M 3.796875 0 L 3.796875 -51.109375 L 14.578125 -51.109375 L 14.578125 0 Z M 3.796875 0 "/></g></g></g><g fill="#ffffff" fill-opacity="1"><g transform="translate(484.185535, 161.279368)"><g><path d="M 14.359375 0.140625 L 0.28125 -34.21875 L 11.90625 -34.21875 L 20.84375 -6.96875 L 16.546875 -6.96875 L 25.703125 -34.21875 L 37.3125 -34.21875 L 22.671875 0.140625 Z M 5.5625 14.4375 L 15.84375 -7.75 L 22.671875 0.140625 L 16.609375 14.4375 Z M 5.5625 14.4375 "/></g></g></g><g fill="#ffffff" fill-opacity="1"><g transform="translate(521.759148, 161.279368)"><g><path d="M 18.09375 0.703125 C 14.945312 0.703125 12.140625 -0.0664062 9.671875 -1.609375 C 7.210938 -3.160156 5.265625 -5.273438 3.828125 -7.953125 C 2.398438 -10.628906 1.6875 -13.679688 1.6875 -17.109375 C 1.6875 -20.535156 2.398438 -23.585938 3.828125 -26.265625 C 5.265625 -28.941406 7.210938 -31.050781 9.671875 -32.59375 C 12.140625 -34.144531 14.945312 -34.921875 18.09375 -34.921875 C 20.394531 -34.921875 22.472656 -34.472656 24.328125 -33.578125 C 26.179688 -32.691406 27.691406 -31.460938 28.859375 -29.890625 C 30.035156 -28.316406 30.695312 -26.519531 30.84375 -24.5 L 30.84375 -9.71875 C 30.695312 -7.695312 30.046875 -5.898438 28.890625 -4.328125 C 27.742188 -2.753906 26.234375 -1.519531 24.359375 -0.625 C 22.484375 0.257812 20.394531 0.703125 18.09375 0.703125 Z M 20.28125 -9.015625 C 22.582031 -9.015625 24.4375 -9.773438 25.84375 -11.296875 C 27.25 -12.828125 27.953125 -14.765625 27.953125 -17.109375 C 27.953125 -18.703125 27.632812 -20.109375 27 -21.328125 C 26.363281 -22.546875 25.46875 -23.492188 24.3125 -24.171875 C 23.164062 -24.859375 21.84375 -25.203125 20.34375 -25.203125 C 18.84375 -25.203125 17.515625 -24.859375 16.359375 -24.171875 C 15.210938 -23.492188 14.300781 -22.546875 13.625 -21.328125 C 12.945312 -20.109375 12.609375 -18.703125 12.609375 -17.109375 C 12.609375 -15.554688 12.9375 -14.171875 13.59375 -12.953125 C 14.25 -11.734375 15.160156 -10.769531 16.328125 -10.0625 C 17.503906 -9.363281 18.820312 -9.015625 20.28125 -9.015625 Z M 27.53125 0 L 27.53125 -9.21875 L 29.140625 -17.53125 L 27.53125 -25.84375 L 27.53125 -34.21875 L 38.09375 -34.21875 L 38.09375 0 Z M 27.53125 0 "/></g></g></g><g clip-path="url(#d5cb740c59)"><path fill="#f1ac68" d="M 454.386719 24.714844 L 454.386719 54.660156 C 454.386719 55.980469 455.457031 57.046875 456.773438 57.046875 L 467.851562 57.046875 C 469.628906 57.046875 470.785156 58.921875 469.984375 60.507812 L 460.898438 78.542969 C 459.679688 80.960938 462.792969 83.21875 464.710938 81.308594 L 485.246094 60.886719 C 487.71875 58.429688 489.105469 55.089844 489.105469 51.601562 L 489.105469 24.714844 C 489.105469 23.394531 488.039062 22.328125 486.71875 22.328125 L 456.773438 22.328125 C 455.457031 22.328125 454.386719 23.394531 454.386719 24.714844 " fill-opacity="1" fill-rule="nonzero"/></g><g clip-path="url(#a4d2e0cc5e)"><g clip-path="url(#5fa0ebaa75)"><path stroke-linecap="butt" transform="matrix(0.749686, 0, 0, 0.749686, 55.658138, 15.283179)" fill="none" stroke-linejoin="miter" d="M 6.484569 -0.00257273 L 200.675135 -0.00257273 C 204.254757 -0.00257273 207.157012 2.904893 207.157012 6.484515 L 207.157012 197.6113 C 207.157012 201.190922 204.254757 204.093177 200.675135 204.093177 L 6.484569 204.093177 C 2.904947 204.093177 -0.00251825 201.190922 -0.00251825 197.6113 L -0.00251825 6.484515 C -0.00251825 2.904893 2.904947 -0.00257273 6.484569 -0.00257273 Z M 6.484569 -0.00257273 " stroke="#ffffff" stroke-width="2" stroke-opacity="1" stroke-miterlimit="4"/></g></g><g fill="#ffffff" fill-opacity="1"><g transform="translate(64.858051, 123.358656)"><g><path d="M 28.1875 -25.578125 L 0.90625 -71.390625 L 21.546875 -71.390625 L 42.390625 -34.234375 L 27.890625 -34.234375 L 48.734375 -71.390625 L 68.96875 -71.390625 L 41.484375 -25.578125 Z M 26.078125 0 L 26.078125 -32.921875 L 44.09375 -32.921875 L 44.09375 0 Z M 26.078125 0 "/></g></g></g><g fill="#ffffff" fill-opacity="1"><g transform="translate(132.07102, 123.358656)"><g><path d="M 40.984375 1.109375 C 35.546875 1.109375 30.507812 0.1875 25.875 -1.65625 C 21.238281 -3.507812 17.191406 -6.09375 13.734375 -9.40625 C 10.285156 -12.726562 7.601562 -16.640625 5.6875 -21.140625 C 3.769531 -25.640625 2.8125 -30.507812 2.8125 -35.75 C 2.8125 -41.050781 3.769531 -45.929688 5.6875 -50.390625 C 7.601562 -54.859375 10.285156 -58.734375 13.734375 -62.015625 C 17.191406 -65.304688 21.21875 -67.890625 25.8125 -69.765625 C 30.414062 -71.648438 35.40625 -72.59375 40.78125 -72.59375 C 46.414062 -72.59375 51.484375 -71.703125 55.984375 -69.921875 C 60.484375 -68.148438 64.441406 -65.6875 67.859375 -62.53125 L 55.78125 -50.4375 C 54.101562 -52.320312 52.019531 -53.800781 49.53125 -54.875 C 47.050781 -55.945312 44.132812 -56.484375 40.78125 -56.484375 C 37.894531 -56.484375 35.257812 -56.015625 32.875 -55.078125 C 30.488281 -54.140625 28.421875 -52.742188 26.671875 -50.890625 C 24.929688 -49.046875 23.570312 -46.847656 22.59375 -44.296875 C 21.625 -41.742188 21.140625 -38.894531 21.140625 -35.75 C 21.140625 -32.59375 21.625 -29.738281 22.59375 -27.1875 C 23.570312 -24.632812 24.929688 -22.4375 26.671875 -20.59375 C 28.421875 -18.75 30.488281 -17.335938 32.875 -16.359375 C 35.257812 -15.390625 37.894531 -14.90625 40.78125 -14.90625 C 44.132812 -14.90625 47.085938 -15.421875 49.640625 -16.453125 C 52.191406 -17.492188 54.375 -18.988281 56.1875 -20.9375 L 68.265625 -8.859375 C 64.773438 -5.703125 60.832031 -3.25 56.4375 -1.5 C 52.039062 0.238281 46.890625 1.109375 40.984375 1.109375 Z M 40.984375 1.109375 "/></g></g></g><g fill="#ffffff" fill-opacity="1"><g transform="translate(48.750328, 211.453431)"><g><path d="M 2.03125 0 L 2.03125 -17.140625 L 4.34375 -17.140625 L 4.34375 0 Z M 2.03125 0 "/></g></g></g><g fill="#ffffff" fill-opacity="1"><g transform="translate(55.119257, 211.453431)"><g><path d="M 9.9375 0 L 9.9375 -6.84375 C 9.9375 -7.726562 9.65625 -8.457031 9.09375 -9.03125 C 8.53125 -9.613281 7.804688 -9.90625 6.921875 -9.90625 C 6.328125 -9.90625 5.796875 -9.769531 5.328125 -9.5 C 4.867188 -9.238281 4.507812 -8.878906 4.25 -8.421875 C 3.988281 -7.960938 3.859375 -7.4375 3.859375 -6.84375 L 2.9375 -7.359375 C 2.9375 -8.253906 3.132812 -9.046875 3.53125 -9.734375 C 3.925781 -10.421875 4.476562 -10.96875 5.1875 -11.375 C 5.894531 -11.78125 6.691406 -11.984375 7.578125 -11.984375 C 8.472656 -11.984375 9.257812 -11.757812 9.9375 -11.3125 C 10.625 -10.863281 11.164062 -10.28125 11.5625 -9.5625 C 11.957031 -8.851562 12.15625 -8.09375 12.15625 -7.28125 L 12.15625 0 Z M 1.625 0 L 1.625 -11.734375 L 3.859375 -11.734375 L 3.859375 0 Z M 1.625 0 "/></g></g></g><g fill="#ffffff" fill-opacity="1"><g transform="translate(68.647028, 211.453431)"><g><path d="M 6.59375 0.25 C 5.507812 0.25 4.535156 -0.015625 3.671875 -0.546875 C 2.816406 -1.085938 2.140625 -1.816406 1.640625 -2.734375 C 1.140625 -3.660156 0.890625 -4.703125 0.890625 -5.859375 C 0.890625 -7.003906 1.140625 -8.035156 1.640625 -8.953125 C 2.140625 -9.878906 2.816406 -10.613281 3.671875 -11.15625 C 4.535156 -11.707031 5.507812 -11.984375 6.59375 -11.984375 C 7.46875 -11.984375 8.257812 -11.796875 8.96875 -11.421875 C 9.675781 -11.054688 10.25 -10.546875 10.6875 -9.890625 C 11.125 -9.242188 11.363281 -8.492188 11.40625 -7.640625 L 11.40625 -4.09375 C 11.363281 -3.257812 11.125 -2.507812 10.6875 -1.84375 C 10.257812 -1.1875 9.691406 -0.671875 8.984375 -0.296875 C 8.273438 0.0664062 7.476562 0.25 6.59375 0.25 Z M 6.96875 -1.859375 C 7.707031 -1.859375 8.351562 -2.03125 8.90625 -2.375 C 9.457031 -2.71875 9.890625 -3.1875 10.203125 -3.78125 C 10.515625 -4.382812 10.671875 -5.078125 10.671875 -5.859375 C 10.671875 -6.660156 10.507812 -7.359375 10.1875 -7.953125 C 9.863281 -8.546875 9.425781 -9.015625 8.875 -9.359375 C 8.320312 -9.703125 7.675781 -9.875 6.9375 -9.875 C 6.195312 -9.875 5.546875 -9.703125 4.984375 -9.359375 C 4.429688 -9.015625 3.992188 -8.539062 3.671875 -7.9375 C 3.347656 -7.34375 3.1875 -6.65625 3.1875 -5.875 C 3.1875 -5.082031 3.347656 -4.382812 3.671875 -3.78125 C 3.992188 -3.1875 4.4375 -2.71875 5 -2.375 C 5.570312 -2.03125 6.226562 -1.859375 6.96875 -1.859375 Z M 12.765625 0 L 10.53125 0 L 10.53125 -3.15625 L 10.9375 -6.03125 L 10.53125 -8.875 L 10.53125 -17.640625 L 12.765625 -17.640625 Z M 12.765625 0 "/></g></g></g><g fill="#ffffff" fill-opacity="1"><g transform="translate(83.014123, 211.453431)"><g><path d="M 1.65625 0 L 1.65625 -11.734375 L 3.875 -11.734375 L 3.875 0 Z M 2.765625 -14.078125 C 2.359375 -14.078125 2.019531 -14.210938 1.75 -14.484375 C 1.488281 -14.753906 1.359375 -15.097656 1.359375 -15.515625 C 1.359375 -15.910156 1.488281 -16.242188 1.75 -16.515625 C 2.019531 -16.785156 2.359375 -16.921875 2.765625 -16.921875 C 3.179688 -16.921875 3.519531 -16.785156 3.78125 -16.515625 C 4.039062 -16.242188 4.171875 -15.910156 4.171875 -15.515625 C 4.171875 -15.097656 4.039062 -14.753906 3.78125 -14.484375 C 3.519531 -14.210938 3.179688 -14.078125 2.765625 -14.078125 Z M 2.765625 -14.078125 "/></g></g></g><g fill="#ffffff" fill-opacity="1"><g transform="translate(88.543728, 211.453431)"><g><path d="M 6.625 0.25 C 5.550781 0.25 4.578125 -0.015625 3.703125 -0.546875 C 2.828125 -1.085938 2.140625 -1.816406 1.640625 -2.734375 C 1.140625 -3.660156 0.890625 -4.703125 0.890625 -5.859375 C 0.890625 -7.003906 1.140625 -8.035156 1.640625 -8.953125 C 2.140625 -9.878906 2.820312 -10.613281 3.6875 -11.15625 C 4.550781 -11.707031 5.53125 -11.984375 6.625 -11.984375 C 7.507812 -11.984375 8.300781 -11.796875 9 -11.421875 C 9.695312 -11.054688 10.257812 -10.546875 10.6875 -9.890625 C 11.125 -9.242188 11.363281 -8.492188 11.40625 -7.640625 L 11.40625 -4.09375 C 11.363281 -3.257812 11.128906 -2.507812 10.703125 -1.84375 C 10.285156 -1.1875 9.726562 -0.671875 9.03125 -0.296875 C 8.332031 0.0664062 7.53125 0.25 6.625 0.25 Z M 6.984375 -1.859375 C 8.085938 -1.859375 8.976562 -2.226562 9.65625 -2.96875 C 10.332031 -3.71875 10.671875 -4.679688 10.671875 -5.859375 C 10.671875 -6.660156 10.515625 -7.363281 10.203125 -7.96875 C 9.898438 -8.570312 9.46875 -9.039062 8.90625 -9.375 C 8.351562 -9.707031 7.707031 -9.875 6.96875 -9.875 C 6.226562 -9.875 5.570312 -9.703125 5 -9.359375 C 4.4375 -9.015625 3.992188 -8.539062 3.671875 -7.9375 C 3.347656 -7.34375 3.1875 -6.65625 3.1875 -5.875 C 3.1875 -5.082031 3.347656 -4.382812 3.671875 -3.78125 C 3.992188 -3.1875 4.441406 -2.71875 5.015625 -2.375 C 5.585938 -2.03125 6.242188 -1.859375 6.984375 -1.859375 Z M 10.53125 0 L 10.53125 -3.15625 L 10.9375 -6.03125 L 10.53125 -8.875 L 10.53125 -11.734375 L 12.765625 -11.734375 L 12.765625 0 Z M 10.53125 0 "/></g></g></g><g fill="#ffffff" fill-opacity="1"><g transform="translate(102.910823, 211.453431)"><g><path d="M 1.4375 -11.6875 L 2.96875 -14.625 L 3.75 -14.828125 C 3.664062 -14.640625 3.5625 -14.488281 3.4375 -14.375 C 3.320312 -14.257812 3.171875 -14.203125 2.984375 -14.203125 C 2.640625 -14.203125 2.320312 -14.34375 2.03125 -14.625 C 1.75 -14.914062 1.609375 -15.28125 1.609375 -15.71875 C 1.609375 -16.175781 1.765625 -16.566406 2.078125 -16.890625 C 2.398438 -17.222656 2.796875 -17.390625 3.265625 -17.390625 C 3.691406 -17.390625 4.066406 -17.222656 4.390625 -16.890625 C 4.722656 -16.566406 4.890625 -16.175781 4.890625 -15.71875 C 4.890625 -15.53125 4.851562 -15.304688 4.78125 -15.046875 C 4.707031 -14.796875 4.5625 -14.46875 4.34375 -14.0625 L 2.71875 -11 Z M 1.4375 -11.6875 "/></g></g></g><g fill="#ffffff" fill-opacity="1"><g transform="translate(109.057568, 211.453431)"><g><path d="M 5.359375 0.25 C 4.703125 0.25 4.082031 0.164062 3.5 0 C 2.914062 -0.175781 2.375 -0.425781 1.875 -0.75 C 1.382812 -1.070312 0.957031 -1.457031 0.59375 -1.90625 L 2.03125 -3.328125 C 2.457031 -2.804688 2.945312 -2.414062 3.5 -2.15625 C 4.0625 -1.90625 4.691406 -1.78125 5.390625 -1.78125 C 6.078125 -1.78125 6.609375 -1.898438 6.984375 -2.140625 C 7.367188 -2.378906 7.5625 -2.710938 7.5625 -3.140625 C 7.5625 -3.566406 7.40625 -3.898438 7.09375 -4.140625 C 6.789062 -4.378906 6.398438 -4.578125 5.921875 -4.734375 C 5.453125 -4.890625 4.945312 -5.046875 4.40625 -5.203125 C 3.875 -5.359375 3.367188 -5.554688 2.890625 -5.796875 C 2.410156 -6.046875 2.019531 -6.382812 1.71875 -6.8125 C 1.414062 -7.238281 1.265625 -7.804688 1.265625 -8.515625 C 1.265625 -9.222656 1.4375 -9.835938 1.78125 -10.359375 C 2.125 -10.878906 2.601562 -11.28125 3.21875 -11.5625 C 3.84375 -11.84375 4.585938 -11.984375 5.453125 -11.984375 C 6.378906 -11.984375 7.195312 -11.820312 7.90625 -11.5 C 8.625 -11.175781 9.21875 -10.691406 9.6875 -10.046875 L 8.25 -8.625 C 7.914062 -9.050781 7.503906 -9.378906 7.015625 -9.609375 C 6.535156 -9.835938 5.992188 -9.953125 5.390625 -9.953125 C 4.742188 -9.953125 4.25 -9.835938 3.90625 -9.609375 C 3.570312 -9.390625 3.40625 -9.085938 3.40625 -8.703125 C 3.40625 -8.304688 3.550781 -8 3.84375 -7.78125 C 4.144531 -7.5625 4.535156 -7.378906 5.015625 -7.234375 C 5.503906 -7.085938 6.015625 -6.9375 6.546875 -6.78125 C 7.078125 -6.625 7.578125 -6.410156 8.046875 -6.140625 C 8.523438 -5.878906 8.914062 -5.523438 9.21875 -5.078125 C 9.53125 -4.640625 9.6875 -4.054688 9.6875 -3.328125 C 9.6875 -2.234375 9.296875 -1.363281 8.515625 -0.71875 C 7.734375 -0.0703125 6.679688 0.25 5.359375 0.25 Z M 5.359375 0.25 "/></g></g></g><g fill="#ffffff" fill-opacity="1"><g transform="translate(119.598369, 211.453431)"><g/></g></g><g fill="#ffffff" fill-opacity="1"><g transform="translate(124.733016, 211.453431)"><g><path d="M 2.03125 0 L 2.03125 -17.140625 L 4.34375 -17.140625 L 4.34375 0 Z M 3.609375 0 L 3.609375 -2.125 L 13.4375 -2.125 L 13.4375 0 Z M 3.609375 -7.75 L 3.609375 -9.78125 L 12.625 -9.78125 L 12.625 -7.75 Z M 3.609375 -15.015625 L 3.609375 -17.140625 L 13.3125 -17.140625 L 13.3125 -15.015625 Z M 3.609375 -15.015625 "/></g></g></g><g fill="#ffffff" fill-opacity="1"><g transform="translate(139.297604, 211.453431)"><g><path d="M 1.625 0 L 1.625 -17.640625 L 3.859375 -17.640625 L 3.859375 0 Z M 1.625 0 "/></g></g></g><g fill="#ffffff" fill-opacity="1"><g transform="translate(144.777828, 211.453431)"><g><path d="M 1.65625 0 L 1.65625 -11.734375 L 3.875 -11.734375 L 3.875 0 Z M 2.765625 -14.078125 C 2.359375 -14.078125 2.019531 -14.210938 1.75 -14.484375 C 1.488281 -14.753906 1.359375 -15.097656 1.359375 -15.515625 C 1.359375 -15.910156 1.488281 -16.242188 1.75 -16.515625 C 2.019531 -16.785156 2.359375 -16.921875 2.765625 -16.921875 C 3.179688 -16.921875 3.519531 -16.785156 3.78125 -16.515625 C 4.039062 -16.242188 4.171875 -15.910156 4.171875 -15.515625 C 4.171875 -15.097656 4.039062 -14.753906 3.78125 -14.484375 C 3.519531 -14.210938 3.179688 -14.078125 2.765625 -14.078125 Z M 2.765625 -14.078125 "/></g></g></g><g fill="#ffffff" fill-opacity="1"><g transform="translate(150.307433, 211.453431)"><g><path d="M 3.4375 0 L 3.4375 -16.65625 L 5.65625 -16.65625 L 5.65625 0 Z M 0.546875 -9.703125 L 0.546875 -11.734375 L 8.546875 -11.734375 L 8.546875 -9.703125 Z M 0.546875 -9.703125 "/></g></g></g><g fill="#ffffff" fill-opacity="1"><g transform="translate(159.391797, 211.453431)"><g><path d="M 7.0625 0.25 C 5.894531 0.25 4.84375 -0.015625 3.90625 -0.546875 C 2.96875 -1.085938 2.222656 -1.816406 1.671875 -2.734375 C 1.128906 -3.660156 0.859375 -4.707031 0.859375 -5.875 C 0.859375 -7.03125 1.125 -8.066406 1.65625 -8.984375 C 2.195312 -9.910156 2.925781 -10.640625 3.84375 -11.171875 C 4.757812 -11.710938 5.785156 -11.984375 6.921875 -11.984375 C 8.003906 -11.984375 8.960938 -11.734375 9.796875 -11.234375 C 10.628906 -10.742188 11.28125 -10.0625 11.75 -9.1875 C 12.21875 -8.3125 12.453125 -7.320312 12.453125 -6.21875 C 12.453125 -6.0625 12.441406 -5.882812 12.421875 -5.6875 C 12.410156 -5.5 12.378906 -5.285156 12.328125 -5.046875 L 2.421875 -5.046875 L 2.421875 -6.890625 L 11.140625 -6.890625 L 10.328125 -6.171875 C 10.328125 -6.960938 10.1875 -7.632812 9.90625 -8.1875 C 9.625 -8.738281 9.226562 -9.164062 8.71875 -9.46875 C 8.207031 -9.78125 7.59375 -9.9375 6.875 -9.9375 C 6.113281 -9.9375 5.441406 -9.769531 4.859375 -9.4375 C 4.285156 -9.101562 3.84375 -8.640625 3.53125 -8.046875 C 3.21875 -7.453125 3.0625 -6.753906 3.0625 -5.953125 C 3.0625 -5.128906 3.222656 -4.40625 3.546875 -3.78125 C 3.878906 -3.164062 4.347656 -2.691406 4.953125 -2.359375 C 5.566406 -2.023438 6.269531 -1.859375 7.0625 -1.859375 C 7.71875 -1.859375 8.320312 -1.972656 8.875 -2.203125 C 9.425781 -2.429688 9.898438 -2.773438 10.296875 -3.234375 L 11.734375 -1.78125 C 11.171875 -1.125 10.484375 -0.617188 9.671875 -0.265625 C 8.859375 0.078125 7.988281 0.25 7.0625 0.25 Z M 7.0625 0.25 "/></g></g></g><g fill="#ffffff" fill-opacity="1"><g transform="translate(172.623344, 211.453431)"><g/></g></g><g fill="#ffffff" fill-opacity="1"><g transform="translate(177.757991, 211.453431)"><g><path d="M 6.796875 0.25 C 5.441406 0.25 4.285156 0.00390625 3.328125 -0.484375 C 2.378906 -0.984375 1.535156 -1.703125 0.796875 -2.640625 L 2.375 -4.21875 C 2.914062 -3.46875 3.539062 -2.894531 4.25 -2.5 C 4.957031 -2.113281 5.832031 -1.921875 6.875 -1.921875 C 7.894531 -1.921875 8.710938 -2.144531 9.328125 -2.59375 C 9.941406 -3.039062 10.25 -3.648438 10.25 -4.421875 C 10.25 -5.066406 10.097656 -5.585938 9.796875 -5.984375 C 9.503906 -6.378906 9.109375 -6.703125 8.609375 -6.953125 C 8.109375 -7.210938 7.5625 -7.441406 6.96875 -7.640625 C 6.375 -7.847656 5.78125 -8.070312 5.1875 -8.3125 C 4.59375 -8.550781 4.046875 -8.847656 3.546875 -9.203125 C 3.054688 -9.554688 2.660156 -10.019531 2.359375 -10.59375 C 2.054688 -11.175781 1.90625 -11.898438 1.90625 -12.765625 C 1.90625 -13.742188 2.140625 -14.570312 2.609375 -15.25 C 3.078125 -15.9375 3.71875 -16.460938 4.53125 -16.828125 C 5.34375 -17.203125 6.257812 -17.390625 7.28125 -17.390625 C 8.40625 -17.390625 9.410156 -17.171875 10.296875 -16.734375 C 11.191406 -16.296875 11.914062 -15.722656 12.46875 -15.015625 L 10.890625 -13.4375 C 10.378906 -14.03125 9.832031 -14.472656 9.25 -14.765625 C 8.664062 -15.066406 7.992188 -15.21875 7.234375 -15.21875 C 6.316406 -15.21875 5.582031 -15.015625 5.03125 -14.609375 C 4.488281 -14.203125 4.21875 -13.640625 4.21875 -12.921875 C 4.21875 -12.347656 4.367188 -11.882812 4.671875 -11.53125 C 4.984375 -11.175781 5.382812 -10.875 5.875 -10.625 C 6.375 -10.375 6.921875 -10.144531 7.515625 -9.9375 C 8.117188 -9.738281 8.71875 -9.515625 9.3125 -9.265625 C 9.90625 -9.015625 10.445312 -8.695312 10.9375 -8.3125 C 11.4375 -7.9375 11.835938 -7.445312 12.140625 -6.84375 C 12.441406 -6.25 12.59375 -5.5 12.59375 -4.59375 C 12.59375 -3.082031 12.070312 -1.894531 11.03125 -1.03125 C 9.988281 -0.175781 8.578125 0.25 6.796875 0.25 Z M 6.796875 0.25 "/></g></g></g><g fill="#ffffff" fill-opacity="1"><g transform="translate(191.458565, 211.453431)"><g><path d="M 3.4375 0 L 3.4375 -16.65625 L 5.65625 -16.65625 L 5.65625 0 Z M 0.546875 -9.703125 L 0.546875 -11.734375 L 8.546875 -11.734375 L 8.546875 -9.703125 Z M 0.546875 -9.703125 "/></g></g></g><g fill="#ffffff" fill-opacity="1"><g transform="translate(200.54293, 211.453431)"><g><path d="M 6.625 0.25 C 5.550781 0.25 4.578125 -0.015625 3.703125 -0.546875 C 2.828125 -1.085938 2.140625 -1.816406 1.640625 -2.734375 C 1.140625 -3.660156 0.890625 -4.703125 0.890625 -5.859375 C 0.890625 -7.003906 1.140625 -8.035156 1.640625 -8.953125 C 2.140625 -9.878906 2.820312 -10.613281 3.6875 -11.15625 C 4.550781 -11.707031 5.53125 -11.984375 6.625 -11.984375 C 7.507812 -11.984375 8.300781 -11.796875 9 -11.421875 C 9.695312 -11.054688 10.257812 -10.546875 10.6875 -9.890625 C 11.125 -9.242188 11.363281 -8.492188 11.40625 -7.640625 L 11.40625 -4.09375 C 11.363281 -3.257812 11.128906 -2.507812 10.703125 -1.84375 C 10.285156 -1.1875 9.726562 -0.671875 9.03125 -0.296875 C 8.332031 0.0664062 7.53125 0.25 6.625 0.25 Z M 6.984375 -1.859375 C 8.085938 -1.859375 8.976562 -2.226562 9.65625 -2.96875 C 10.332031 -3.71875 10.671875 -4.679688 10.671875 -5.859375 C 10.671875 -6.660156 10.515625 -7.363281 10.203125 -7.96875 C 9.898438 -8.570312 9.46875 -9.039062 8.90625 -9.375 C 8.351562 -9.707031 7.707031 -9.875 6.96875 -9.875 C 6.226562 -9.875 5.570312 -9.703125 5 -9.359375 C 4.4375 -9.015625 3.992188 -8.539062 3.671875 -7.9375 C 3.347656 -7.34375 3.1875 -6.65625 3.1875 -5.875 C 3.1875 -5.082031 3.347656 -4.382812 3.671875 -3.78125 C 3.992188 -3.1875 4.441406 -2.71875 5.015625 -2.375 C 5.585938 -2.03125 6.242188 -1.859375 6.984375 -1.859375 Z M 10.53125 0 L 10.53125 -3.15625 L 10.9375 -6.03125 L 10.53125 -8.875 L 10.53125 -11.734375 L 12.765625 -11.734375 L 12.765625 0 Z M 10.53125 0 "/></g></g></g><g fill="#ffffff" fill-opacity="1"><g transform="translate(214.910025, 211.453431)"><g><path d="M 1.625 0 L 1.625 -11.734375 L 3.859375 -11.734375 L 3.859375 0 Z M 3.859375 -6.6875 L 3.015625 -7.0625 C 3.015625 -8.5625 3.359375 -9.753906 4.046875 -10.640625 C 4.742188 -11.535156 5.742188 -11.984375 7.046875 -11.984375 C 7.628906 -11.984375 8.160156 -11.878906 8.640625 -11.671875 C 9.117188 -11.460938 9.566406 -11.117188 9.984375 -10.640625 L 8.515625 -9.140625 C 8.273438 -9.398438 8.003906 -9.585938 7.703125 -9.703125 C 7.410156 -9.816406 7.066406 -9.875 6.671875 -9.875 C 5.847656 -9.875 5.171875 -9.609375 4.640625 -9.078125 C 4.117188 -8.554688 3.859375 -7.757812 3.859375 -6.6875 Z M 3.859375 -6.6875 "/></g></g></g><g fill="#ffffff" fill-opacity="1"><g transform="translate(225.253361, 211.453431)"><g><path d="M 3.4375 0 L 3.4375 -16.65625 L 5.65625 -16.65625 L 5.65625 0 Z M 0.546875 -9.703125 L 0.546875 -11.734375 L 8.546875 -11.734375 L 8.546875 -9.703125 Z M 0.546875 -9.703125 "/></g></g></g><g fill="#ffffff" fill-opacity="1"><g transform="translate(234.337726, 211.453431)"><g><path d="M 6.375 0.25 C 5.40625 0.25 4.535156 0.03125 3.765625 -0.40625 C 3.003906 -0.84375 2.40625 -1.445312 1.96875 -2.21875 C 1.539062 -3 1.328125 -3.898438 1.328125 -4.921875 L 1.328125 -11.734375 L 3.5625 -11.734375 L 3.5625 -5.015625 C 3.5625 -4.367188 3.671875 -3.8125 3.890625 -3.34375 C 4.109375 -2.875 4.429688 -2.515625 4.859375 -2.265625 C 5.296875 -2.023438 5.800781 -1.90625 6.375 -1.90625 C 7.25 -1.90625 7.929688 -2.179688 8.421875 -2.734375 C 8.921875 -3.285156 9.171875 -4.046875 9.171875 -5.015625 L 9.171875 -11.734375 L 11.390625 -11.734375 L 11.390625 -4.921875 C 11.390625 -3.898438 11.175781 -3 10.75 -2.21875 C 10.320312 -1.445312 9.734375 -0.84375 8.984375 -0.40625 C 8.234375 0.03125 7.363281 0.25 6.375 0.25 Z M 6.375 0.25 "/></g></g></g><g fill="#ffffff" fill-opacity="1"><g transform="translate(247.075554, 211.453431)"><g><path d="M 7.8125 0.25 C 6.914062 0.25 6.109375 0.0664062 5.390625 -0.296875 C 4.679688 -0.671875 4.109375 -1.1875 3.671875 -1.84375 C 3.242188 -2.507812 3.007812 -3.257812 2.96875 -4.09375 L 2.96875 -7.640625 C 3.007812 -8.492188 3.25 -9.242188 3.6875 -9.890625 C 4.125 -10.546875 4.703125 -11.054688 5.421875 -11.421875 C 6.140625 -11.796875 6.9375 -11.984375 7.8125 -11.984375 C 8.875 -11.984375 9.835938 -11.707031 10.703125 -11.15625 C 11.566406 -10.613281 12.242188 -9.878906 12.734375 -8.953125 C 13.234375 -8.035156 13.484375 -7.003906 13.484375 -5.859375 C 13.484375 -4.703125 13.234375 -3.660156 12.734375 -2.734375 C 12.242188 -1.816406 11.566406 -1.085938 10.703125 -0.546875 C 9.835938 -0.015625 8.875 0.25 7.8125 0.25 Z M 1.625 4.921875 L 1.625 -11.734375 L 3.859375 -11.734375 L 3.859375 -8.640625 L 3.4375 -5.8125 L 3.859375 -2.9375 L 3.859375 4.921875 Z M 7.4375 -1.859375 C 8.175781 -1.859375 8.828125 -2.03125 9.390625 -2.375 C 9.953125 -2.71875 10.394531 -3.1875 10.71875 -3.78125 C 11.050781 -4.382812 11.21875 -5.082031 11.21875 -5.875 C 11.21875 -6.65625 11.050781 -7.347656 10.71875 -7.953125 C 10.394531 -8.566406 9.953125 -9.039062 9.390625 -9.375 C 8.828125 -9.707031 8.179688 -9.875 7.453125 -9.875 C 6.710938 -9.875 6.0625 -9.707031 5.5 -9.375 C 4.945312 -9.039062 4.515625 -8.566406 4.203125 -7.953125 C 3.890625 -7.347656 3.734375 -6.648438 3.734375 -5.859375 C 3.734375 -5.078125 3.882812 -4.382812 4.1875 -3.78125 C 4.488281 -3.1875 4.921875 -2.71875 5.484375 -2.375 C 6.054688 -2.03125 6.707031 -1.859375 7.4375 -1.859375 Z M 7.4375 -1.859375 "/></g></g></g><g fill="#ffffff" fill-opacity="1"><g transform="translate(261.44265, 211.453431)"><g/></g></g><g fill="#ffffff" fill-opacity="1"><g transform="translate(266.577297, 211.453431)"><g><path d="M 3.578125 0 L 3.578125 -2.03125 L 8.765625 -2.03125 C 9.753906 -2.03125 10.53125 -2.320312 11.09375 -2.90625 C 11.65625 -3.488281 11.9375 -4.191406 11.9375 -5.015625 C 11.9375 -5.578125 11.8125 -6.082031 11.5625 -6.53125 C 11.3125 -6.988281 10.953125 -7.347656 10.484375 -7.609375 C 10.015625 -7.867188 9.46875 -8 8.84375 -8 L 3.578125 -8 L 3.578125 -10.03125 L 8.5 -10.03125 C 9.320312 -10.03125 9.972656 -10.25 10.453125 -10.6875 C 10.941406 -11.125 11.1875 -11.753906 11.1875 -12.578125 C 11.1875 -13.398438 10.929688 -14.03125 10.421875 -14.46875 C 9.910156 -14.90625 9.238281 -15.125 8.40625 -15.125 L 3.578125 -15.125 L 3.578125 -17.140625 L 8.453125 -17.140625 C 9.566406 -17.140625 10.5 -16.9375 11.25 -16.53125 C 12 -16.132812 12.566406 -15.601562 12.953125 -14.9375 C 13.335938 -14.28125 13.53125 -13.554688 13.53125 -12.765625 C 13.53125 -11.847656 13.28125 -11.039062 12.78125 -10.34375 C 12.28125 -9.65625 11.546875 -9.113281 10.578125 -8.71875 L 10.765625 -9.46875 C 11.867188 -9.070312 12.726562 -8.472656 13.34375 -7.671875 C 13.96875 -6.867188 14.28125 -5.925781 14.28125 -4.84375 C 14.28125 -3.9375 14.054688 -3.117188 13.609375 -2.390625 C 13.160156 -1.671875 12.519531 -1.09375 11.6875 -0.65625 C 10.863281 -0.21875 9.847656 0 8.640625 0 Z M 2.03125 0 L 2.03125 -17.140625 L 4.34375 -17.140625 L 4.34375 0 Z M 2.03125 0 "/></g></g></g><g fill="#ffffff" fill-opacity="1"><g transform="translate(281.956519, 211.453431)"><g><path d="M 6.375 0.25 C 5.40625 0.25 4.535156 0.03125 3.765625 -0.40625 C 3.003906 -0.84375 2.40625 -1.445312 1.96875 -2.21875 C 1.539062 -3 1.328125 -3.898438 1.328125 -4.921875 L 1.328125 -11.734375 L 3.5625 -11.734375 L 3.5625 -5.015625 C 3.5625 -4.367188 3.671875 -3.8125 3.890625 -3.34375 C 4.109375 -2.875 4.429688 -2.515625 4.859375 -2.265625 C 5.296875 -2.023438 5.800781 -1.90625 6.375 -1.90625 C 7.25 -1.90625 7.929688 -2.179688 8.421875 -2.734375 C 8.921875 -3.285156 9.171875 -4.046875 9.171875 -5.015625 L 9.171875 -11.734375 L 11.390625 -11.734375 L 11.390625 -4.921875 C 11.390625 -3.898438 11.175781 -3 10.75 -2.21875 C 10.320312 -1.445312 9.734375 -0.84375 8.984375 -0.40625 C 8.234375 0.03125 7.363281 0.25 6.375 0.25 Z M 6.375 0.25 "/></g></g></g><g fill="#ffffff" fill-opacity="1"><g transform="translate(294.694347, 211.453431)"><g><path d="M 5.359375 0.25 C 4.703125 0.25 4.082031 0.164062 3.5 0 C 2.914062 -0.175781 2.375 -0.425781 1.875 -0.75 C 1.382812 -1.070312 0.957031 -1.457031 0.59375 -1.90625 L 2.03125 -3.328125 C 2.457031 -2.804688 2.945312 -2.414062 3.5 -2.15625 C 4.0625 -1.90625 4.691406 -1.78125 5.390625 -1.78125 C 6.078125 -1.78125 6.609375 -1.898438 6.984375 -2.140625 C 7.367188 -2.378906 7.5625 -2.710938 7.5625 -3.140625 C 7.5625 -3.566406 7.40625 -3.898438 7.09375 -4.140625 C 6.789062 -4.378906 6.398438 -4.578125 5.921875 -4.734375 C 5.453125 -4.890625 4.945312 -5.046875 4.40625 -5.203125 C 3.875 -5.359375 3.367188 -5.554688 2.890625 -5.796875 C 2.410156 -6.046875 2.019531 -6.382812 1.71875 -6.8125 C 1.414062 -7.238281 1.265625 -7.804688 1.265625 -8.515625 C 1.265625 -9.222656 1.4375 -9.835938 1.78125 -10.359375 C 2.125 -10.878906 2.601562 -11.28125 3.21875 -11.5625 C 3.84375 -11.84375 4.585938 -11.984375 5.453125 -11.984375 C 6.378906 -11.984375 7.195312 -11.820312 7.90625 -11.5 C 8.625 -11.175781 9.21875 -10.691406 9.6875 -10.046875 L 8.25 -8.625 C 7.914062 -9.050781 7.503906 -9.378906 7.015625 -9.609375 C 6.535156 -9.835938 5.992188 -9.953125 5.390625 -9.953125 C 4.742188 -9.953125 4.25 -9.835938 3.90625 -9.609375 C 3.570312 -9.390625 3.40625 -9.085938 3.40625 -8.703125 C 3.40625 -8.304688 3.550781 -8 3.84375 -7.78125 C 4.144531 -7.5625 4.535156 -7.378906 5.015625 -7.234375 C 5.503906 -7.085938 6.015625 -6.9375 6.546875 -6.78125 C 7.078125 -6.625 7.578125 -6.410156 8.046875 -6.140625 C 8.523438 -5.878906 8.914062 -5.523438 9.21875 -5.078125 C 9.53125 -4.640625 9.6875 -4.054688 9.6875 -3.328125 C 9.6875 -2.234375 9.296875 -1.363281 8.515625 -0.71875 C 7.734375 -0.0703125 6.679688 0.25 5.359375 0.25 Z M 5.359375 0.25 "/></g></g></g><g fill="#ffffff" fill-opacity="1"><g transform="translate(305.235147, 211.453431)"><g><path d="M 1.65625 0 L 1.65625 -11.734375 L 3.875 -11.734375 L 3.875 0 Z M 2.765625 -14.078125 C 2.359375 -14.078125 2.019531 -14.210938 1.75 -14.484375 C 1.488281 -14.753906 1.359375 -15.097656 1.359375 -15.515625 C 1.359375 -15.910156 1.488281 -16.242188 1.75 -16.515625 C 2.019531 -16.785156 2.359375 -16.921875 2.765625 -16.921875 C 3.179688 -16.921875 3.519531 -16.785156 3.78125 -16.515625 C 4.039062 -16.242188 4.171875 -15.910156 4.171875 -15.515625 C 4.171875 -15.097656 4.039062 -14.753906 3.78125 -14.484375 C 3.519531 -14.210938 3.179688 -14.078125 2.765625 -14.078125 Z M 2.765625 -14.078125 "/></g></g></g><g fill="#ffffff" fill-opacity="1"><g transform="translate(310.764752, 211.453431)"><g><path d="M 9.9375 0 L 9.9375 -6.84375 C 9.9375 -7.726562 9.65625 -8.457031 9.09375 -9.03125 C 8.53125 -9.613281 7.804688 -9.90625 6.921875 -9.90625 C 6.328125 -9.90625 5.796875 -9.769531 5.328125 -9.5 C 4.867188 -9.238281 4.507812 -8.878906 4.25 -8.421875 C 3.988281 -7.960938 3.859375 -7.4375 3.859375 -6.84375 L 2.9375 -7.359375 C 2.9375 -8.253906 3.132812 -9.046875 3.53125 -9.734375 C 3.925781 -10.421875 4.476562 -10.96875 5.1875 -11.375 C 5.894531 -11.78125 6.691406 -11.984375 7.578125 -11.984375 C 8.472656 -11.984375 9.257812 -11.757812 9.9375 -11.3125 C 10.625 -10.863281 11.164062 -10.28125 11.5625 -9.5625 C 11.957031 -8.851562 12.15625 -8.09375 12.15625 -7.28125 L 12.15625 0 Z M 1.625 0 L 1.625 -11.734375 L 3.859375 -11.734375 L 3.859375 0 Z M 1.625 0 "/></g></g></g><g fill="#ffffff" fill-opacity="1"><g transform="translate(324.292523, 211.453431)"><g><path d="M 7.0625 0.25 C 5.894531 0.25 4.84375 -0.015625 3.90625 -0.546875 C 2.96875 -1.085938 2.222656 -1.816406 1.671875 -2.734375 C 1.128906 -3.660156 0.859375 -4.707031 0.859375 -5.875 C 0.859375 -7.03125 1.125 -8.066406 1.65625 -8.984375 C 2.195312 -9.910156 2.925781 -10.640625 3.84375 -11.171875 C 4.757812 -11.710938 5.785156 -11.984375 6.921875 -11.984375 C 8.003906 -11.984375 8.960938 -11.734375 9.796875 -11.234375 C 10.628906 -10.742188 11.28125 -10.0625 11.75 -9.1875 C 12.21875 -8.3125 12.453125 -7.320312 12.453125 -6.21875 C 12.453125 -6.0625 12.441406 -5.882812 12.421875 -5.6875 C 12.410156 -5.5 12.378906 -5.285156 12.328125 -5.046875 L 2.421875 -5.046875 L 2.421875 -6.890625 L 11.140625 -6.890625 L 10.328125 -6.171875 C 10.328125 -6.960938 10.1875 -7.632812 9.90625 -8.1875 C 9.625 -8.738281 9.226562 -9.164062 8.71875 -9.46875 C 8.207031 -9.78125 7.59375 -9.9375 6.875 -9.9375 C 6.113281 -9.9375 5.441406 -9.769531 4.859375 -9.4375 C 4.285156 -9.101562 3.84375 -8.640625 3.53125 -8.046875 C 3.21875 -7.453125 3.0625 -6.753906 3.0625 -5.953125 C 3.0625 -5.128906 3.222656 -4.40625 3.546875 -3.78125 C 3.878906 -3.164062 4.347656 -2.691406 4.953125 -2.359375 C 5.566406 -2.023438 6.269531 -1.859375 7.0625 -1.859375 C 7.71875 -1.859375 8.320312 -1.972656 8.875 -2.203125 C 9.425781 -2.429688 9.898438 -2.773438 10.296875 -3.234375 L 11.734375 -1.78125 C 11.171875 -1.125 10.484375 -0.617188 9.671875 -0.265625 C 8.859375 0.078125 7.988281 0.25 7.0625 0.25 Z M 7.0625 0.25 "/></g></g></g><g fill="#ffffff" fill-opacity="1"><g transform="translate(337.524069, 211.453431)"><g><path d="M 5.359375 0.25 C 4.703125 0.25 4.082031 0.164062 3.5 0 C 2.914062 -0.175781 2.375 -0.425781 1.875 -0.75 C 1.382812 -1.070312 0.957031 -1.457031 0.59375 -1.90625 L 2.03125 -3.328125 C 2.457031 -2.804688 2.945312 -2.414062 3.5 -2.15625 C 4.0625 -1.90625 4.691406 -1.78125 5.390625 -1.78125 C 6.078125 -1.78125 6.609375 -1.898438 6.984375 -2.140625 C 7.367188 -2.378906 7.5625 -2.710938 7.5625 -3.140625 C 7.5625 -3.566406 7.40625 -3.898438 7.09375 -4.140625 C 6.789062 -4.378906 6.398438 -4.578125 5.921875 -4.734375 C 5.453125 -4.890625 4.945312 -5.046875 4.40625 -5.203125 C 3.875 -5.359375 3.367188 -5.554688 2.890625 -5.796875 C 2.410156 -6.046875 2.019531 -6.382812 1.71875 -6.8125 C 1.414062 -7.238281 1.265625 -7.804688 1.265625 -8.515625 C 1.265625 -9.222656 1.4375 -9.835938 1.78125 -10.359375 C 2.125 -10.878906 2.601562 -11.28125 3.21875 -11.5625 C 3.84375 -11.84375 4.585938 -11.984375 5.453125 -11.984375 C 6.378906 -11.984375 7.195312 -11.820312 7.90625 -11.5 C 8.625 -11.175781 9.21875 -10.691406 9.6875 -10.046875 L 8.25 -8.625 C 7.914062 -9.050781 7.503906 -9.378906 7.015625 -9.609375 C 6.535156 -9.835938 5.992188 -9.953125 5.390625 -9.953125 C 4.742188 -9.953125 4.25 -9.835938 3.90625 -9.609375 C 3.570312 -9.390625 3.40625 -9.085938 3.40625 -8.703125 C 3.40625 -8.304688 3.550781 -8 3.84375 -7.78125 C 4.144531 -7.5625 4.535156 -7.378906 5.015625 -7.234375 C 5.503906 -7.085938 6.015625 -6.9375 6.546875 -6.78125 C 7.078125 -6.625 7.578125 -6.410156 8.046875 -6.140625 C 8.523438 -5.878906 8.914062 -5.523438 9.21875 -5.078125 C 9.53125 -4.640625 9.6875 -4.054688 9.6875 -3.328125 C 9.6875 -2.234375 9.296875 -1.363281 8.515625 -0.71875 C 7.734375 -0.0703125 6.679688 0.25 5.359375 0.25 Z M 5.359375 0.25 "/></g></g></g><g fill="#ffffff" fill-opacity="1"><g transform="translate(348.064869, 211.453431)"><g><path d="M 5.359375 0.25 C 4.703125 0.25 4.082031 0.164062 3.5 0 C 2.914062 -0.175781 2.375 -0.425781 1.875 -0.75 C 1.382812 -1.070312 0.957031 -1.457031 0.59375 -1.90625 L 2.03125 -3.328125 C 2.457031 -2.804688 2.945312 -2.414062 3.5 -2.15625 C 4.0625 -1.90625 4.691406 -1.78125 5.390625 -1.78125 C 6.078125 -1.78125 6.609375 -1.898438 6.984375 -2.140625 C 7.367188 -2.378906 7.5625 -2.710938 7.5625 -3.140625 C 7.5625 -3.566406 7.40625 -3.898438 7.09375 -4.140625 C 6.789062 -4.378906 6.398438 -4.578125 5.921875 -4.734375 C 5.453125 -4.890625 4.945312 -5.046875 4.40625 -5.203125 C 3.875 -5.359375 3.367188 -5.554688 2.890625 -5.796875 C 2.410156 -6.046875 2.019531 -6.382812 1.71875 -6.8125 C 1.414062 -7.238281 1.265625 -7.804688 1.265625 -8.515625 C 1.265625 -9.222656 1.4375 -9.835938 1.78125 -10.359375 C 2.125 -10.878906 2.601562 -11.28125 3.21875 -11.5625 C 3.84375 -11.84375 4.585938 -11.984375 5.453125 -11.984375 C 6.378906 -11.984375 7.195312 -11.820312 7.90625 -11.5 C 8.625 -11.175781 9.21875 -10.691406 9.6875 -10.046875 L 8.25 -8.625 C 7.914062 -9.050781 7.503906 -9.378906 7.015625 -9.609375 C 6.535156 -9.835938 5.992188 -9.953125 5.390625 -9.953125 C 4.742188 -9.953125 4.25 -9.835938 3.90625 -9.609375 C 3.570312 -9.390625 3.40625 -9.085938 3.40625 -8.703125 C 3.40625 -8.304688 3.550781 -8 3.84375 -7.78125 C 4.144531 -7.5625 4.535156 -7.378906 5.015625 -7.234375 C 5.503906 -7.085938 6.015625 -6.9375 6.546875 -6.78125 C 7.078125 -6.625 7.578125 -6.410156 8.046875 -6.140625 C 8.523438 -5.878906 8.914062 -5.523438 9.21875 -5.078125 C 9.53125 -4.640625 9.6875 -4.054688 9.6875 -3.328125 C 9.6875 -2.234375 9.296875 -1.363281 8.515625 -0.71875 C 7.734375 -0.0703125 6.679688 0.25 5.359375 0.25 Z M 5.359375 0.25 "/></g></g></g><g fill="#ffffff" fill-opacity="1"><g transform="translate(358.60567, 211.453431)"><g/></g></g><g fill="#ffffff" fill-opacity="1"><g transform="translate(363.740317, 211.453431)"><g><path d="M 2.03125 0 L 2.03125 -17.140625 L 4.34375 -17.140625 L 4.34375 0 Z M 3.609375 0 L 3.609375 -2.125 L 12.796875 -2.125 L 12.796875 0 Z M 3.609375 0 "/></g></g></g><g fill="#ffffff" fill-opacity="1"><g transform="translate(377.366849, 211.453431)"><g><path d="M 7.0625 0.25 C 5.894531 0.25 4.84375 -0.015625 3.90625 -0.546875 C 2.96875 -1.085938 2.222656 -1.816406 1.671875 -2.734375 C 1.128906 -3.660156 0.859375 -4.707031 0.859375 -5.875 C 0.859375 -7.03125 1.125 -8.066406 1.65625 -8.984375 C 2.195312 -9.910156 2.925781 -10.640625 3.84375 -11.171875 C 4.757812 -11.710938 5.785156 -11.984375 6.921875 -11.984375 C 8.003906 -11.984375 8.960938 -11.734375 9.796875 -11.234375 C 10.628906 -10.742188 11.28125 -10.0625 11.75 -9.1875 C 12.21875 -8.3125 12.453125 -7.320312 12.453125 -6.21875 C 12.453125 -6.0625 12.441406 -5.882812 12.421875 -5.6875 C 12.410156 -5.5 12.378906 -5.285156 12.328125 -5.046875 L 2.421875 -5.046875 L 2.421875 -6.890625 L 11.140625 -6.890625 L 10.328125 -6.171875 C 10.328125 -6.960938 10.1875 -7.632812 9.90625 -8.1875 C 9.625 -8.738281 9.226562 -9.164062 8.71875 -9.46875 C 8.207031 -9.78125 7.59375 -9.9375 6.875 -9.9375 C 6.113281 -9.9375 5.441406 -9.769531 4.859375 -9.4375 C 4.285156 -9.101562 3.84375 -8.640625 3.53125 -8.046875 C 3.21875 -7.453125 3.0625 -6.753906 3.0625 -5.953125 C 3.0625 -5.128906 3.222656 -4.40625 3.546875 -3.78125 C 3.878906 -3.164062 4.347656 -2.691406 4.953125 -2.359375 C 5.566406 -2.023438 6.269531 -1.859375 7.0625 -1.859375 C 7.71875 -1.859375 8.320312 -1.972656 8.875 -2.203125 C 9.425781 -2.429688 9.898438 -2.773438 10.296875 -3.234375 L 11.734375 -1.78125 C 11.171875 -1.125 10.484375 -0.617188 9.671875 -0.265625 C 8.859375 0.078125 7.988281 0.25 7.0625 0.25 Z M 7.0625 0.25 "/></g></g></g><g fill="#ffffff" fill-opacity="1"><g transform="translate(390.598395, 211.453431)"><g><path d="M 6.625 0.25 C 5.550781 0.25 4.578125 -0.015625 3.703125 -0.546875 C 2.828125 -1.085938 2.140625 -1.816406 1.640625 -2.734375 C 1.140625 -3.660156 0.890625 -4.703125 0.890625 -5.859375 C 0.890625 -7.003906 1.140625 -8.035156 1.640625 -8.953125 C 2.140625 -9.878906 2.820312 -10.613281 3.6875 -11.15625 C 4.550781 -11.707031 5.53125 -11.984375 6.625 -11.984375 C 7.507812 -11.984375 8.300781 -11.796875 9 -11.421875 C 9.695312 -11.054688 10.257812 -10.546875 10.6875 -9.890625 C 11.125 -9.242188 11.363281 -8.492188 11.40625 -7.640625 L 11.40625 -4.09375 C 11.363281 -3.257812 11.128906 -2.507812 10.703125 -1.84375 C 10.285156 -1.1875 9.726562 -0.671875 9.03125 -0.296875 C 8.332031 0.0664062 7.53125 0.25 6.625 0.25 Z M 6.984375 -1.859375 C 8.085938 -1.859375 8.976562 -2.226562 9.65625 -2.96875 C 10.332031 -3.71875 10.671875 -4.679688 10.671875 -5.859375 C 10.671875 -6.660156 10.515625 -7.363281 10.203125 -7.96875 C 9.898438 -8.570312 9.46875 -9.039062 8.90625 -9.375 C 8.351562 -9.707031 7.707031 -9.875 6.96875 -9.875 C 6.226562 -9.875 5.570312 -9.703125 5 -9.359375 C 4.4375 -9.015625 3.992188 -8.539062 3.671875 -7.9375 C 3.347656 -7.34375 3.1875 -6.65625 3.1875 -5.875 C 3.1875 -5.082031 3.347656 -4.382812 3.671875 -3.78125 C 3.992188 -3.1875 4.441406 -2.71875 5.015625 -2.375 C 5.585938 -2.03125 6.242188 -1.859375 6.984375 -1.859375 Z M 10.53125 0 L 10.53125 -3.15625 L 10.9375 -6.03125 L 10.53125 -8.875 L 10.53125 -11.734375 L 12.765625 -11.734375 L 12.765625 0 Z M 10.53125 0 "/></g></g></g><g fill="#ffffff" fill-opacity="1"><g transform="translate(404.965491, 211.453431)"><g><path d="M 6.59375 0.25 C 5.507812 0.25 4.535156 -0.015625 3.671875 -0.546875 C 2.816406 -1.085938 2.140625 -1.816406 1.640625 -2.734375 C 1.140625 -3.660156 0.890625 -4.703125 0.890625 -5.859375 C 0.890625 -7.003906 1.140625 -8.035156 1.640625 -8.953125 C 2.140625 -9.878906 2.816406 -10.613281 3.671875 -11.15625 C 4.535156 -11.707031 5.507812 -11.984375 6.59375 -11.984375 C 7.46875 -11.984375 8.257812 -11.796875 8.96875 -11.421875 C 9.675781 -11.054688 10.25 -10.546875 10.6875 -9.890625 C 11.125 -9.242188 11.363281 -8.492188 11.40625 -7.640625 L 11.40625 -4.09375 C 11.363281 -3.257812 11.125 -2.507812 10.6875 -1.84375 C 10.257812 -1.1875 9.691406 -0.671875 8.984375 -0.296875 C 8.273438 0.0664062 7.476562 0.25 6.59375 0.25 Z M 6.96875 -1.859375 C 7.707031 -1.859375 8.351562 -2.03125 8.90625 -2.375 C 9.457031 -2.71875 9.890625 -3.1875 10.203125 -3.78125 C 10.515625 -4.382812 10.671875 -5.078125 10.671875 -5.859375 C 10.671875 -6.660156 10.507812 -7.359375 10.1875 -7.953125 C 9.863281 -8.546875 9.425781 -9.015625 8.875 -9.359375 C 8.320312 -9.703125 7.675781 -9.875 6.9375 -9.875 C 6.195312 -9.875 5.546875 -9.703125 4.984375 -9.359375 C 4.429688 -9.015625 3.992188 -8.539062 3.671875 -7.9375 C 3.347656 -7.34375 3.1875 -6.65625 3.1875 -5.875 C 3.1875 -5.082031 3.347656 -4.382812 3.671875 -3.78125 C 3.992188 -3.1875 4.4375 -2.71875 5 -2.375 C 5.570312 -2.03125 6.226562 -1.859375 6.96875 -1.859375 Z M 12.765625 0 L 10.53125 0 L 10.53125 -3.15625 L 10.9375 -6.03125 L 10.53125 -8.875 L 10.53125 -17.640625 L 12.765625 -17.640625 Z M 12.765625 0 "/></g></g></g><g fill="#ffffff" fill-opacity="1"><g transform="translate(419.336706, 211.453431)"><g><path d="M 7.0625 0.25 C 5.894531 0.25 4.84375 -0.015625 3.90625 -0.546875 C 2.96875 -1.085938 2.222656 -1.816406 1.671875 -2.734375 C 1.128906 -3.660156 0.859375 -4.707031 0.859375 -5.875 C 0.859375 -7.03125 1.125 -8.066406 1.65625 -8.984375 C 2.195312 -9.910156 2.925781 -10.640625 3.84375 -11.171875 C 4.757812 -11.710938 5.785156 -11.984375 6.921875 -11.984375 C 8.003906 -11.984375 8.960938 -11.734375 9.796875 -11.234375 C 10.628906 -10.742188 11.28125 -10.0625 11.75 -9.1875 C 12.21875 -8.3125 12.453125 -7.320312 12.453125 -6.21875 C 12.453125 -6.0625 12.441406 -5.882812 12.421875 -5.6875 C 12.410156 -5.5 12.378906 -5.285156 12.328125 -5.046875 L 2.421875 -5.046875 L 2.421875 -6.890625 L 11.140625 -6.890625 L 10.328125 -6.171875 C 10.328125 -6.960938 10.1875 -7.632812 9.90625 -8.1875 C 9.625 -8.738281 9.226562 -9.164062 8.71875 -9.46875 C 8.207031 -9.78125 7.59375 -9.9375 6.875 -9.9375 C 6.113281 -9.9375 5.441406 -9.769531 4.859375 -9.4375 C 4.285156 -9.101562 3.84375 -8.640625 3.53125 -8.046875 C 3.21875 -7.453125 3.0625 -6.753906 3.0625 -5.953125 C 3.0625 -5.128906 3.222656 -4.40625 3.546875 -3.78125 C 3.878906 -3.164062 4.347656 -2.691406 4.953125 -2.359375 C 5.566406 -2.023438 6.269531 -1.859375 7.0625 -1.859375 C 7.71875 -1.859375 8.320312 -1.972656 8.875 -2.203125 C 9.425781 -2.429688 9.898438 -2.773438 10.296875 -3.234375 L 11.734375 -1.78125 C 11.171875 -1.125 10.484375 -0.617188 9.671875 -0.265625 C 8.859375 0.078125 7.988281 0.25 7.0625 0.25 Z M 7.0625 0.25 "/></g></g></g><g fill="#ffffff" fill-opacity="1"><g transform="translate(432.568252, 211.453431)"><g><path d="M 1.625 0 L 1.625 -11.734375 L 3.859375 -11.734375 L 3.859375 0 Z M 3.859375 -6.6875 L 3.015625 -7.0625 C 3.015625 -8.5625 3.359375 -9.753906 4.046875 -10.640625 C 4.742188 -11.535156 5.742188 -11.984375 7.046875 -11.984375 C 7.628906 -11.984375 8.160156 -11.878906 8.640625 -11.671875 C 9.117188 -11.460938 9.566406 -11.117188 9.984375 -10.640625 L 8.515625 -9.140625 C 8.273438 -9.398438 8.003906 -9.585938 7.703125 -9.703125 C 7.410156 -9.816406 7.066406 -9.875 6.671875 -9.875 C 5.847656 -9.875 5.171875 -9.609375 4.640625 -9.078125 C 4.117188 -8.554688 3.859375 -7.757812 3.859375 -6.6875 Z M 3.859375 -6.6875 "/></g></g></g><g fill="#ffffff" fill-opacity="1"><g transform="translate(442.911589, 211.453431)"><g><path d="M 5.359375 0.25 C 4.703125 0.25 4.082031 0.164062 3.5 0 C 2.914062 -0.175781 2.375 -0.425781 1.875 -0.75 C 1.382812 -1.070312 0.957031 -1.457031 0.59375 -1.90625 L 2.03125 -3.328125 C 2.457031 -2.804688 2.945312 -2.414062 3.5 -2.15625 C 4.0625 -1.90625 4.691406 -1.78125 5.390625 -1.78125 C 6.078125 -1.78125 6.609375 -1.898438 6.984375 -2.140625 C 7.367188 -2.378906 7.5625 -2.710938 7.5625 -3.140625 C 7.5625 -3.566406 7.40625 -3.898438 7.09375 -4.140625 C 6.789062 -4.378906 6.398438 -4.578125 5.921875 -4.734375 C 5.453125 -4.890625 4.945312 -5.046875 4.40625 -5.203125 C 3.875 -5.359375 3.367188 -5.554688 2.890625 -5.796875 C 2.410156 -6.046875 2.019531 -6.382812 1.71875 -6.8125 C 1.414062 -7.238281 1.265625 -7.804688 1.265625 -8.515625 C 1.265625 -9.222656 1.4375 -9.835938 1.78125 -10.359375 C 2.125 -10.878906 2.601562 -11.28125 3.21875 -11.5625 C 3.84375 -11.84375 4.585938 -11.984375 5.453125 -11.984375 C 6.378906 -11.984375 7.195312 -11.820312 7.90625 -11.5 C 8.625 -11.175781 9.21875 -10.691406 9.6875 -10.046875 L 8.25 -8.625 C 7.914062 -9.050781 7.503906 -9.378906 7.015625 -9.609375 C 6.535156 -9.835938 5.992188 -9.953125 5.390625 -9.953125 C 4.742188 -9.953125 4.25 -9.835938 3.90625 -9.609375 C 3.570312 -9.390625 3.40625 -9.085938 3.40625 -8.703125 C 3.40625 -8.304688 3.550781 -8 3.84375 -7.78125 C 4.144531 -7.5625 4.535156 -7.378906 5.015625 -7.234375 C 5.503906 -7.085938 6.015625 -6.9375 6.546875 -6.78125 C 7.078125 -6.625 7.578125 -6.410156 8.046875 -6.140625 C 8.523438 -5.878906 8.914062 -5.523438 9.21875 -5.078125 C 9.53125 -4.640625 9.6875 -4.054688 9.6875 -3.328125 C 9.6875 -2.234375 9.296875 -1.363281 8.515625 -0.71875 C 7.734375 -0.0703125 6.679688 0.25 5.359375 0.25 Z M 5.359375 0.25 "/></g></g></g><g fill="#ffffff" fill-opacity="1"><g transform="translate(453.452389, 211.453431)"><g><path d="M 9.9375 0 L 9.9375 -6.84375 C 9.9375 -7.726562 9.65625 -8.457031 9.09375 -9.03125 C 8.53125 -9.613281 7.804688 -9.90625 6.921875 -9.90625 C 6.328125 -9.90625 5.796875 -9.769531 5.328125 -9.5 C 4.867188 -9.238281 4.507812 -8.878906 4.25 -8.421875 C 3.988281 -7.960938 3.859375 -7.4375 3.859375 -6.84375 L 2.9375 -7.359375 C 2.9375 -8.253906 3.132812 -9.046875 3.53125 -9.734375 C 3.925781 -10.421875 4.476562 -10.96875 5.1875 -11.375 C 5.894531 -11.78125 6.691406 -11.984375 7.578125 -11.984375 C 8.472656 -11.984375 9.257812 -11.785156 9.9375 -11.390625 C 10.625 -10.992188 11.164062 -10.441406 11.5625 -9.734375 C 11.957031 -9.023438 12.15625 -8.207031 12.15625 -7.28125 L 12.15625 0 Z M 1.625 0 L 1.625 -17.640625 L 3.859375 -17.640625 L 3.859375 0 Z M 1.625 0 "/></g></g></g><g fill="#ffffff" fill-opacity="1"><g transform="translate(466.98016, 211.453431)"><g><path d="M 1.65625 0 L 1.65625 -11.734375 L 3.875 -11.734375 L 3.875 0 Z M 2.765625 -14.078125 C 2.359375 -14.078125 2.019531 -14.210938 1.75 -14.484375 C 1.488281 -14.753906 1.359375 -15.097656 1.359375 -15.515625 C 1.359375 -15.910156 1.488281 -16.242188 1.75 -16.515625 C 2.019531 -16.785156 2.359375 -16.921875 2.765625 -16.921875 C 3.179688 -16.921875 3.519531 -16.785156 3.78125 -16.515625 C 4.039062 -16.242188 4.171875 -15.910156 4.171875 -15.515625 C 4.171875 -15.097656 4.039062 -14.753906 3.78125 -14.484375 C 3.519531 -14.210938 3.179688 -14.078125 2.765625 -14.078125 Z M 2.765625 -14.078125 "/></g></g></g><g fill="#ffffff" fill-opacity="1"><g transform="translate(472.509765, 211.453431)"><g><path d="M 7.8125 0.25 C 6.914062 0.25 6.109375 0.0664062 5.390625 -0.296875 C 4.679688 -0.671875 4.109375 -1.1875 3.671875 -1.84375 C 3.242188 -2.507812 3.007812 -3.257812 2.96875 -4.09375 L 2.96875 -7.640625 C 3.007812 -8.492188 3.25 -9.242188 3.6875 -9.890625 C 4.125 -10.546875 4.703125 -11.054688 5.421875 -11.421875 C 6.140625 -11.796875 6.9375 -11.984375 7.8125 -11.984375 C 8.875 -11.984375 9.835938 -11.707031 10.703125 -11.15625 C 11.566406 -10.613281 12.242188 -9.878906 12.734375 -8.953125 C 13.234375 -8.035156 13.484375 -7.003906 13.484375 -5.859375 C 13.484375 -4.703125 13.234375 -3.660156 12.734375 -2.734375 C 12.242188 -1.816406 11.566406 -1.085938 10.703125 -0.546875 C 9.835938 -0.015625 8.875 0.25 7.8125 0.25 Z M 1.625 4.921875 L 1.625 -11.734375 L 3.859375 -11.734375 L 3.859375 -8.640625 L 3.4375 -5.8125 L 3.859375 -2.9375 L 3.859375 4.921875 Z M 7.4375 -1.859375 C 8.175781 -1.859375 8.828125 -2.03125 9.390625 -2.375 C 9.953125 -2.71875 10.394531 -3.1875 10.71875 -3.78125 C 11.050781 -4.382812 11.21875 -5.082031 11.21875 -5.875 C 11.21875 -6.65625 11.050781 -7.347656 10.71875 -7.953125 C 10.394531 -8.566406 9.953125 -9.039062 9.390625 -9.375 C 8.828125 -9.707031 8.179688 -9.875 7.453125 -9.875 C 6.710938 -9.875 6.0625 -9.707031 5.5 -9.375 C 4.945312 -9.039062 4.515625 -8.566406 4.203125 -7.953125 C 3.890625 -7.347656 3.734375 -6.648438 3.734375 -5.859375 C 3.734375 -5.078125 3.882812 -4.382812 4.1875 -3.78125 C 4.488281 -3.1875 4.921875 -2.71875 5.484375 -2.375 C 6.054688 -2.03125 6.707031 -1.859375 7.4375 -1.859375 Z M 7.4375 -1.859375 "/></g></g></g><g fill="#ffffff" fill-opacity="1"><g transform="translate(486.87686, 211.453431)"><g/></g></g><g fill="#ffffff" fill-opacity="1"><g transform="translate(492.011507, 211.453431)"><g><path d="M 6.796875 0.25 C 5.441406 0.25 4.285156 0.00390625 3.328125 -0.484375 C 2.378906 -0.984375 1.535156 -1.703125 0.796875 -2.640625 L 2.375 -4.21875 C 2.914062 -3.46875 3.539062 -2.894531 4.25 -2.5 C 4.957031 -2.113281 5.832031 -1.921875 6.875 -1.921875 C 7.894531 -1.921875 8.710938 -2.144531 9.328125 -2.59375 C 9.941406 -3.039062 10.25 -3.648438 10.25 -4.421875 C 10.25 -5.066406 10.097656 -5.585938 9.796875 -5.984375 C 9.503906 -6.378906 9.109375 -6.703125 8.609375 -6.953125 C 8.109375 -7.210938 7.5625 -7.441406 6.96875 -7.640625 C 6.375 -7.847656 5.78125 -8.070312 5.1875 -8.3125 C 4.59375 -8.550781 4.046875 -8.847656 3.546875 -9.203125 C 3.054688 -9.554688 2.660156 -10.019531 2.359375 -10.59375 C 2.054688 -11.175781 1.90625 -11.898438 1.90625 -12.765625 C 1.90625 -13.742188 2.140625 -14.570312 2.609375 -15.25 C 3.078125 -15.9375 3.71875 -16.460938 4.53125 -16.828125 C 5.34375 -17.203125 6.257812 -17.390625 7.28125 -17.390625 C 8.40625 -17.390625 9.410156 -17.171875 10.296875 -16.734375 C 11.191406 -16.296875 11.914062 -15.722656 12.46875 -15.015625 L 10.890625 -13.4375 C 10.378906 -14.03125 9.832031 -14.472656 9.25 -14.765625 C 8.664062 -15.066406 7.992188 -15.21875 7.234375 -15.21875 C 6.316406 -15.21875 5.582031 -15.015625 5.03125 -14.609375 C 4.488281 -14.203125 4.21875 -13.640625 4.21875 -12.921875 C 4.21875 -12.347656 4.367188 -11.882812 4.671875 -11.53125 C 4.984375 -11.175781 5.382812 -10.875 5.875 -10.625 C 6.375 -10.375 6.921875 -10.144531 7.515625 -9.9375 C 8.117188 -9.738281 8.71875 -9.515625 9.3125 -9.265625 C 9.90625 -9.015625 10.445312 -8.695312 10.9375 -8.3125 C 11.4375 -7.9375 11.835938 -7.445312 12.140625 -6.84375 C 12.441406 -6.25 12.59375 -5.5 12.59375 -4.59375 C 12.59375 -3.082031 12.070312 -1.894531 11.03125 -1.03125 C 9.988281 -0.175781 8.578125 0.25 6.796875 0.25 Z M 6.796875 0.25 "/></g></g></g><g fill="#ffffff" fill-opacity="1"><g transform="translate(505.712081, 211.453431)"><g><path d="M 6.984375 0.25 C 5.835938 0.25 4.796875 -0.0195312 3.859375 -0.5625 C 2.929688 -1.113281 2.195312 -1.851562 1.65625 -2.78125 C 1.125 -3.707031 0.859375 -4.738281 0.859375 -5.875 C 0.859375 -7.03125 1.125 -8.066406 1.65625 -8.984375 C 2.195312 -9.910156 2.929688 -10.640625 3.859375 -11.171875 C 4.796875 -11.710938 5.835938 -11.984375 6.984375 -11.984375 C 7.890625 -11.984375 8.726562 -11.8125 9.5 -11.46875 C 10.28125 -11.132812 10.953125 -10.644531 11.515625 -10 L 10.03125 -8.515625 C 9.664062 -8.953125 9.222656 -9.28125 8.703125 -9.5 C 8.179688 -9.71875 7.609375 -9.828125 6.984375 -9.828125 C 6.242188 -9.828125 5.585938 -9.65625 5.015625 -9.3125 C 4.441406 -8.976562 3.988281 -8.515625 3.65625 -7.921875 C 3.320312 -7.335938 3.15625 -6.65625 3.15625 -5.875 C 3.15625 -5.101562 3.320312 -4.421875 3.65625 -3.828125 C 3.988281 -3.234375 4.441406 -2.765625 5.015625 -2.421875 C 5.585938 -2.078125 6.242188 -1.90625 6.984375 -1.90625 C 7.609375 -1.90625 8.179688 -2.015625 8.703125 -2.234375 C 9.222656 -2.453125 9.671875 -2.78125 10.046875 -3.21875 L 11.515625 -1.734375 C 10.972656 -1.109375 10.304688 -0.617188 9.515625 -0.265625 C 8.734375 0.078125 7.890625 0.25 6.984375 0.25 Z M 6.984375 0.25 "/></g></g></g><g fill="#ffffff" fill-opacity="1"><g transform="translate(517.783417, 211.453431)"><g><path d="M 9.9375 0 L 9.9375 -6.84375 C 9.9375 -7.726562 9.65625 -8.457031 9.09375 -9.03125 C 8.53125 -9.613281 7.804688 -9.90625 6.921875 -9.90625 C 6.328125 -9.90625 5.796875 -9.769531 5.328125 -9.5 C 4.867188 -9.238281 4.507812 -8.878906 4.25 -8.421875 C 3.988281 -7.960938 3.859375 -7.4375 3.859375 -6.84375 L 2.9375 -7.359375 C 2.9375 -8.253906 3.132812 -9.046875 3.53125 -9.734375 C 3.925781 -10.421875 4.476562 -10.96875 5.1875 -11.375 C 5.894531 -11.78125 6.691406 -11.984375 7.578125 -11.984375 C 8.472656 -11.984375 9.257812 -11.785156 9.9375 -11.390625 C 10.625 -10.992188 11.164062 -10.441406 11.5625 -9.734375 C 11.957031 -9.023438 12.15625 -8.207031 12.15625 -7.28125 L 12.15625 0 Z M 1.625 0 L 1.625 -17.640625 L 3.859375 -17.640625 L 3.859375 0 Z M 1.625 0 "/></g></g></g><g fill="#ffffff" fill-opacity="1"><g transform="translate(531.311189, 211.453431)"><g><path d="M 6.984375 0.25 C 5.835938 0.25 4.800781 -0.0195312 3.875 -0.5625 C 2.957031 -1.113281 2.222656 -1.851562 1.671875 -2.78125 C 1.128906 -3.707031 0.859375 -4.75 0.859375 -5.90625 C 0.859375 -7.039062 1.128906 -8.0625 1.671875 -8.96875 C 2.222656 -9.882812 2.957031 -10.613281 3.875 -11.15625 C 4.800781 -11.707031 5.835938 -11.984375 6.984375 -11.984375 C 8.128906 -11.984375 9.164062 -11.710938 10.09375 -11.171875 C 11.019531 -10.640625 11.753906 -9.910156 12.296875 -8.984375 C 12.847656 -8.066406 13.125 -7.039062 13.125 -5.90625 C 13.125 -4.75 12.847656 -3.707031 12.296875 -2.78125 C 11.753906 -1.851562 11.019531 -1.113281 10.09375 -0.5625 C 9.164062 -0.0195312 8.128906 0.25 6.984375 0.25 Z M 6.984375 -1.90625 C 7.734375 -1.90625 8.394531 -2.078125 8.96875 -2.421875 C 9.539062 -2.765625 9.988281 -3.238281 10.3125 -3.84375 C 10.644531 -4.445312 10.8125 -5.132812 10.8125 -5.90625 C 10.8125 -6.664062 10.644531 -7.335938 10.3125 -7.921875 C 9.976562 -8.515625 9.523438 -8.976562 8.953125 -9.3125 C 8.390625 -9.65625 7.734375 -9.828125 6.984375 -9.828125 C 6.242188 -9.828125 5.585938 -9.65625 5.015625 -9.3125 C 4.441406 -8.976562 3.988281 -8.515625 3.65625 -7.921875 C 3.320312 -7.335938 3.15625 -6.664062 3.15625 -5.90625 C 3.15625 -5.132812 3.320312 -4.445312 3.65625 -3.84375 C 3.988281 -3.238281 4.441406 -2.765625 5.015625 -2.421875 C 5.585938 -2.078125 6.242188 -1.90625 6.984375 -1.90625 Z M 6.984375 -1.90625 "/></g></g></g><g fill="#ffffff" fill-opacity="1"><g transform="translate(545.283327, 211.453431)"><g><path d="M 6.984375 0.25 C 5.835938 0.25 4.800781 -0.0195312 3.875 -0.5625 C 2.957031 -1.113281 2.222656 -1.851562 1.671875 -2.78125 C 1.128906 -3.707031 0.859375 -4.75 0.859375 -5.90625 C 0.859375 -7.039062 1.128906 -8.0625 1.671875 -8.96875 C 2.222656 -9.882812 2.957031 -10.613281 3.875 -11.15625 C 4.800781 -11.707031 5.835938 -11.984375 6.984375 -11.984375 C 8.128906 -11.984375 9.164062 -11.710938 10.09375 -11.171875 C 11.019531 -10.640625 11.753906 -9.910156 12.296875 -8.984375 C 12.847656 -8.066406 13.125 -7.039062 13.125 -5.90625 C 13.125 -4.75 12.847656 -3.707031 12.296875 -2.78125 C 11.753906 -1.851562 11.019531 -1.113281 10.09375 -0.5625 C 9.164062 -0.0195312 8.128906 0.25 6.984375 0.25 Z M 6.984375 -1.90625 C 7.734375 -1.90625 8.394531 -2.078125 8.96875 -2.421875 C 9.539062 -2.765625 9.988281 -3.238281 10.3125 -3.84375 C 10.644531 -4.445312 10.8125 -5.132812 10.8125 -5.90625 C 10.8125 -6.664062 10.644531 -7.335938 10.3125 -7.921875 C 9.976562 -8.515625 9.523438 -8.976562 8.953125 -9.3125 C 8.390625 -9.65625 7.734375 -9.828125 6.984375 -9.828125 C 6.242188 -9.828125 5.585938 -9.65625 5.015625 -9.3125 C 4.441406 -8.976562 3.988281 -8.515625 3.65625 -7.921875 C 3.320312 -7.335938 3.15625 -6.664062 3.15625 -5.90625 C 3.15625 -5.132812 3.320312 -4.445312 3.65625 -3.84375 C 3.988281 -3.238281 4.441406 -2.765625 5.015625 -2.421875 C 5.585938 -2.078125 6.242188 -1.90625 6.984375 -1.90625 Z M 6.984375 -1.90625 "/></g></g></g><g fill="#ffffff" fill-opacity="1"><g transform="translate(559.255465, 211.453431)"><g><path d="M 1.625 0 L 1.625 -17.640625 L 3.859375 -17.640625 L 3.859375 0 Z M 1.625 0 "/></g></g></g></svg>